
CASCADE Topology V1, (c) Matra-Datavision
Locations 56
1
1.000000000000000 0.000000000000000 0.000000000000000 0.000000000000000 
0.000000000000000 1.000000000000000 0.000000000000000 0.000000000000000 
0.000000000000000 0.000000000000000 1.000000000000000 0.000000000000000 
1
1.000000000000000 0.000000000000000 0.000000000000000 0.000000000000000 
0.000000000000000 1.000000000000000 0.000000000000000 0.000000000000000 
0.000000000000000 0.000000000000000 1.000000000000000 5.500000000000000 
1
1.000000000000000 0.000000000000000 0.000000000000000 0.000000000000000 
0.000000000000000 1.000000000000000 0.000000000000000 0.000000000000000 
0.000000000000000 0.000000000000000 1.000000000000000 0.000000000000000 
2  1 1 2 1 3 -1 0
1
1.000000000000000 0.000000000000000 0.000000000000000 0.000000000000000 
0.000000000000000 1.000000000000000 0.000000000000000 0.000000000000000 
0.000000000000000 0.000000000000000 1.000000000000000 5.500000000000000 
2  1 1 2 1 3 -1 5 1 0
1
1.000000000000000 0.000000000000000 0.000000000000000 0.000000000000000 
0.000000000000000 1.000000000000000 0.000000000000000 0.000000000000000 
0.000000000000000 0.000000000000000 1.000000000000000 0.000000000000000 
1
1.000000000000000 0.000000000000000 0.000000000000000 0.000000000000000 
0.000000000000000 1.000000000000000 0.000000000000000 0.000000000000000 
0.000000000000000 0.000000000000000 1.000000000000000 5.500000000000000 
1
1.000000000000000 0.000000000000000 0.000000000000000 0.000000000000000 
0.000000000000000 1.000000000000000 0.000000000000000 0.000000000000000 
0.000000000000000 0.000000000000000 1.000000000000000 0.000000000000000 
2  7 1 8 -1 9 -1 0
1
1.000000000000000 0.000000000000000 0.000000000000000 0.000000000000000 
0.000000000000000 1.000000000000000 0.000000000000000 0.000000000000000 
0.000000000000000 0.000000000000000 1.000000000000000 10.000000000000000 
2  11 -1 7 1 8 -1 9 -1 0
2  8 -1 9 -1 0
1
1.000000000000000 0.000000000000000 0.000000000000000 0.000000000000000 
0.000000000000000 1.000000000000000 0.000000000000000 0.000000000000000 
0.000000000000000 0.000000000000000 1.000000000000000 0.000000000000000 
1
1.000000000000000 0.000000000000000 0.000000000000000 0.000000000000000 
0.000000000000000 1.000000000000000 0.000000000000000 0.000000000000000 
0.000000000000000 0.000000000000000 1.000000000000000 5.500000000000000 
1
1.000000000000000 0.000000000000000 0.000000000000000 0.000000000000000 
0.000000000000000 1.000000000000000 0.000000000000000 0.000000000000000 
0.000000000000000 0.000000000000000 1.000000000000000 0.000000000000000 
2  14 1 15 -1 16 -1 0
1
1.000000000000000 0.000000000000000 0.000000000000000 0.000000000000000 
0.000000000000000 1.000000000000000 0.000000000000000 0.000000000000000 
0.000000000000000 0.000000000000000 1.000000000000000 10.000000000000000 
2  18 -1 14 1 15 -1 16 -1 0
2  15 -1 16 -1 0
1
1.000000000000000 0.000000000000000 0.000000000000000 0.000000000000000 
0.000000000000000 1.000000000000000 0.000000000000000 0.000000000000000 
0.000000000000000 0.000000000000000 1.000000000000000 0.000000000000000 
1
1.000000000000000 0.000000000000000 0.000000000000000 0.000000000000000 
0.000000000000000 1.000000000000000 0.000000000000000 0.000000000000000 
0.000000000000000 0.000000000000000 1.000000000000000 5.500000000000000 
1
1.000000000000000 0.000000000000000 0.000000000000000 0.000000000000000 
0.000000000000000 1.000000000000000 0.000000000000000 0.000000000000000 
0.000000000000000 0.000000000000000 1.000000000000000 0.000000000000000 
2  21 1 22 -1 23 -1 0
1
1.000000000000000 0.000000000000000 0.000000000000000 0.000000000000000 
0.000000000000000 1.000000000000000 0.000000000000000 0.000000000000000 
0.000000000000000 0.000000000000000 1.000000000000000 115.500000000000000 
2  25 -1 21 1 22 -1 23 -1 0
2  22 -1 23 -1 0
1
1.000000000000000 0.000000000000000 0.000000000000000 0.000000000000000 
0.000000000000000 1.000000000000000 0.000000000000000 0.000000000000000 
0.000000000000000 0.000000000000000 1.000000000000000 0.000000000000000 
1
1.000000000000000 0.000000000000000 0.000000000000000 0.000000000000000 
0.000000000000000 1.000000000000000 0.000000000000000 0.000000000000000 
0.000000000000000 0.000000000000000 1.000000000000000 5.500000000000000 
1
1.000000000000000 0.000000000000000 0.000000000000000 0.000000000000000 
0.000000000000000 1.000000000000000 0.000000000000000 0.000000000000000 
0.000000000000000 0.000000000000000 1.000000000000000 0.000000000000000 
2  28 1 29 -1 30 -1 0
1
1.000000000000000 0.000000000000000 0.000000000000000 0.000000000000000 
0.000000000000000 1.000000000000000 0.000000000000000 0.000000000000000 
0.000000000000000 0.000000000000000 1.000000000000000 115.500000000000000 
2  32 -1 28 1 29 -1 30 -1 0
2  29 -1 30 -1 0
1
1.000000000000000 0.000000000000000 0.000000000000000 0.000000000000000 
0.000000000000000 1.000000000000000 0.000000000000000 0.000000000000000 
0.000000000000000 0.000000000000000 1.000000000000000 0.000000000000000 
1
1.000000000000000 0.000000000000000 0.000000000000000 0.000000000000000 
0.000000000000000 1.000000000000000 0.000000000000000 0.000000000000000 
0.000000000000000 0.000000000000000 1.000000000000000 5.500000000000000 
1
1.000000000000000 0.000000000000000 0.000000000000000 0.000000000000000 
0.000000000000000 1.000000000000000 0.000000000000000 0.000000000000000 
0.000000000000000 0.000000000000000 1.000000000000000 0.000000000000000 
2  35 1 36 -1 37 -1 0
1
1.000000000000000 0.000000000000000 0.000000000000000 0.000000000000000 
0.000000000000000 1.000000000000000 0.000000000000000 0.000000000000000 
0.000000000000000 0.000000000000000 1.000000000000000 5.500000000000000 
2  39 -1 35 1 36 -1 37 -1 0
2  36 -1 37 -1 0
2  3 1 2 -1 1 -1 0
2  5 -1 3 1 2 -1 1 -1 0
2  2 -1 1 -1 0
1
1.000000000000000 0.000000000000000 0.000000000000000 0.000000000000000 
0.000000000000000 1.000000000000000 0.000000000000000 0.000000000000000 
0.000000000000000 0.000000000000000 1.000000000000000 0.000000000000000 
1
1.000000000000000 0.000000000000000 0.000000000000000 0.000000000000000 
0.000000000000000 1.000000000000000 0.000000000000000 0.000000000000000 
0.000000000000000 0.000000000000000 1.000000000000000 5.500000000000000 
1
1.000000000000000 0.000000000000000 0.000000000000000 0.000000000000000 
0.000000000000000 1.000000000000000 0.000000000000000 0.000000000000000 
0.000000000000000 0.000000000000000 1.000000000000000 0.000000000000000 
2  45 -1 46 1 47 1 8 -1 9 -1 0
2  45 -1 46 1 47 1 15 -1 16 -1 0
2  45 -1 46 1 47 1 22 -1 23 -1 0
2  45 -1 46 1 47 1 29 -1 30 -1 0
2  45 -1 46 1 47 1 36 -1 37 -1 0
2  45 -1 46 1 47 1 2 -1 1 -1 0
2  3 -1 0
2  1 1 2 1 0
2  3 -1 5 1 0
Curve2ds 132
1 0.00000000000000000 0.00000000000000000 0.00000000000000000 -1.00000000000000000 
1 0.00000000000000000 0.00000000000000000 0.00000000000000000 -1.00000000000000000 
1 2.50000000000000000 0.00000000000000000 0.00000000000000000 -1.00000000000000000 
1 0.00000000000000000 0.00000000000000000 0.00000000000000000 -1.00000000000000000 
1 0.00000000000000000 0.00000000000000000 1.00000000000000000 0.00000000000000000 
1 0.00000000000000000 -10.00000000000000000 1.00000000000000000 0.00000000000000000 
1 2.57500000002455121 -5.07500000000224372 1.00000000000000000 -0.00000000000041851 
1 0.00000000000000000 0.00000000000000000 1.00000000000000000 0.00000000000000000 
1 0.00000000000000000 -10.00000000000000000 1.00000000000000000 0.00000000000000000 
1 2.57500000002455121 -5.07500000000224372 1.00000000000000000 -0.00000000000041851 
1 0.00000000000000000 0.00000000000000000 1.00000000000000000 0.00000000000000000 
1 0.00000000000000000 -115.50000000000000000 1.00000000000000000 0.00000000000000000 
1 2.57500000002455121 -5.07500000000224372 1.00000000000000000 -0.00000000000041851 
1 0.00000000000000000 0.00000000000000000 1.00000000000000000 0.00000000000000000 
1 0.00000000000000000 -115.50000000000000000 1.00000000000000000 0.00000000000000000 
1 2.57500000002455121 -5.07500000000224372 1.00000000000000000 -0.00000000000041851 
1 0.00000000000000000 0.00000000000000000 1.00000000000000000 0.00000000000000000 
1 0.00000000000000000 -5.50000000000000000 1.00000000000000000 0.00000000000000000 
1 2.57500000002455121 -5.07500000000224372 1.00000000000000000 -0.00000000000041851 
1 0.00000000000000000 0.00000000000000000 1.00000000000000000 0.00000000000000000 
1 0.00000000000000000 -5.50000000000000000 1.00000000000000000 0.00000000000000000 
1 2.57500000002455121 -5.07500000000224372 1.00000000000000000 -0.00000000000041851 
1 2.50000000000000000 0.00000000000000000 0.00000000000000000 -1.00000000000000000 
1 3.53553390592402117 0.00000000000000000 0.00000000000000000 -1.00000000000000000 
1 0.00000000000000000 0.00000000000000000 1.00000000000000000 0.00000000000000000 
1 0.00000000000000000 -10.00000000000000000 1.00000000000000000 0.00000000000000000 
1 5.07500000002455121 -5.07500000000328999 -0.00000000000451230 1.00000000000000000 
1 0.00000000000000000 0.00000000000000000 1.00000000000000000 0.00000000000000000 
1 0.00000000000000000 -10.00000000000000000 1.00000000000000000 0.00000000000000000 
1 5.07500000002455121 -5.07500000000328999 -0.00000000000451230 1.00000000000000000 
1 0.00000000000000000 0.00000000000000000 1.00000000000000000 0.00000000000000000 
1 0.00000000000000000 -115.50000000000000000 1.00000000000000000 0.00000000000000000 
1 5.07500000002455121 -5.07500000000328999 -0.00000000000451230 1.00000000000000000 
1 0.00000000000000000 0.00000000000000000 1.00000000000000000 0.00000000000000000 
1 0.00000000000000000 -115.50000000000000000 1.00000000000000000 0.00000000000000000 
1 5.07500000002455121 -5.07500000000328999 -0.00000000000451230 1.00000000000000000 
1 0.00000000000000000 0.00000000000000000 1.00000000000000000 0.00000000000000000 
1 0.00000000000000000 -5.50000000000000000 1.00000000000000000 0.00000000000000000 
1 5.07500000002455121 -5.07500000000328999 -0.00000000000451230 1.00000000000000000 
1 0.00000000000000000 0.00000000000000000 1.00000000000000000 0.00000000000000000 
1 0.00000000000000000 -5.50000000000000000 1.00000000000000000 0.00000000000000000 
1 5.07500000002455121 -5.07500000000328999 -0.00000000000451230 1.00000000000000000 
1 0.00000000000000000 0.00000000000000000 1.00000000000000000 0.00000000000000000 
1 0.00000000000000000 -10.00000000000000000 1.00000000000000000 0.00000000000000000 
1 2.57500000002455121 -5.07500000000224372 0.70710678118510017 0.70710678118799486 
1 2.57500000002686535 -5.07500000000000551 0.70710678118510017 0.70710678118799486 
1 0.00000000000000000 0.00000000000000000 1.00000000000000000 0.00000000000000000 
1 0.00000000000000000 -10.00000000000000000 1.00000000000000000 0.00000000000000000 
1 2.57500000002455121 -5.07500000000224372 0.70710678118510017 0.70710678118799486 
1 2.57500000002686535 -5.07500000000000551 0.70710678118510017 0.70710678118799486 
1 0.00000000000000000 0.00000000000000000 1.00000000000000000 0.00000000000000000 
1 0.00000000000000000 -115.50000000000000000 1.00000000000000000 0.00000000000000000 
1 2.57500000002455121 -5.07500000000224372 0.70710678118510017 0.70710678118799486 
1 2.57500000002686535 -5.07500000000000551 0.70710678118510017 0.70710678118799486 
1 0.00000000000000000 0.00000000000000000 1.00000000000000000 0.00000000000000000 
1 0.00000000000000000 -115.50000000000000000 1.00000000000000000 0.00000000000000000 
1 2.57500000002455121 -5.07500000000224372 0.70710678118510017 0.70710678118799486 
1 2.57500000002686535 -5.07500000000000551 0.70710678118510017 0.70710678118799486 
1 0.00000000000000000 0.00000000000000000 1.00000000000000000 0.00000000000000000 
1 0.00000000000000000 -5.50000000000000000 1.00000000000000000 0.00000000000000000 
1 2.57500000002455121 -5.07500000000224372 0.70710678118510017 0.70710678118799486 
1 2.57500000002686535 -5.07500000000000551 0.70710678118510017 0.70710678118799486 
1 0.00000000000000000 0.00000000000000000 1.00000000000000000 0.00000000000000000 
1 0.00000000000000000 -5.50000000000000000 1.00000000000000000 0.00000000000000000 
1 2.57500000002455121 -5.07500000000224372 0.70710678118510017 0.70710678118799486 
1 2.57500000002686535 -5.07500000000000551 0.70710678118510017 0.70710678118799486 
1 0.00000000000000000 0.00000000000000000 0.00000000000000000 -1.00000000000000000 
1 2.50000000000000000 0.00000000000000000 0.00000000000000000 -1.00000000000000000 
1 3.53553390592789185 0.00000000000000000 0.00000000000000000 -1.00000000000000000 
1 2.50000000000000000 0.00000000000000000 0.00000000000000000 -1.00000000000000000 
1 0.00000000000000000 0.00000000000000000 1.00000000000000000 0.00000000000000000 
1 0.00000000000000000 -10.00000000000000000 1.00000000000000000 0.00000000000000000 
1 -5.07500000001439844 2.57500000000118501 0.70710678118557835 0.70710678118751669 
1 -5.07500000001208385 2.57500000000342322 0.70710678118557835 0.70710678118751669 
1 0.00000000000000000 0.00000000000000000 1.00000000000000000 0.00000000000000000 
1 0.00000000000000000 -10.00000000000000000 1.00000000000000000 0.00000000000000000 
1 -5.07500000001439844 2.57500000000118501 0.70710678118557835 0.70710678118751669 
1 -5.07500000001208385 2.57500000000342322 0.70710678118557835 0.70710678118751669 
1 0.00000000000000000 0.00000000000000000 1.00000000000000000 0.00000000000000000 
1 0.00000000000000000 -115.50000000000000000 1.00000000000000000 0.00000000000000000 
1 -5.07500000001439844 2.57500000000118501 0.70710678118557835 0.70710678118751669 
1 -5.07500000001208385 2.57500000000342322 0.70710678118557835 0.70710678118751669 
1 0.00000000000000000 0.00000000000000000 1.00000000000000000 0.00000000000000000 
1 0.00000000000000000 -115.50000000000000000 1.00000000000000000 0.00000000000000000 
1 -5.07500000001439844 2.57500000000118501 0.70710678118557835 0.70710678118751669 
1 -5.07500000001208385 2.57500000000342322 0.70710678118557835 0.70710678118751669 
1 0.00000000000000000 0.00000000000000000 1.00000000000000000 0.00000000000000000 
1 0.00000000000000000 -5.50000000000000000 1.00000000000000000 0.00000000000000000 
1 -5.07500000001439844 2.57500000000118501 0.70710678118557835 0.70710678118751669 
1 -5.07500000001208385 2.57500000000342322 0.70710678118557835 0.70710678118751669 
1 0.00000000000000000 0.00000000000000000 1.00000000000000000 0.00000000000000000 
1 0.00000000000000000 -5.50000000000000000 1.00000000000000000 0.00000000000000000 
1 -5.07500000001439844 2.57500000000118501 0.70710678118557835 0.70710678118751669 
1 -5.07500000001208385 2.57500000000342322 0.70710678118557835 0.70710678118751669 
1 0.00000000000000000 0.00000000000000000 0.00000000000000000 -1.00000000000000000 
1 0.00000000000000000 0.00000000000000000 0.00000000000000000 -1.00000000000000000 
1 0.00000000000000000 0.00000000000000000 1.00000000000000000 0.00000000000000000 
1 0.00000000000000000 -10.00000000000000000 1.00000000000000000 0.00000000000000000 
1 -5.07500000002125162 5.07500000000118501 1.00000000000000000 -0.00000000000000000 
1 0.00000000000000000 0.00000000000000000 1.00000000000000000 0.00000000000000000 
1 0.00000000000000000 -10.00000000000000000 1.00000000000000000 0.00000000000000000 
1 -5.07500000002125162 5.07500000000118501 1.00000000000000000 -0.00000000000000000 
1 0.00000000000000000 0.00000000000000000 1.00000000000000000 0.00000000000000000 
1 0.00000000000000000 -115.50000000000000000 1.00000000000000000 0.00000000000000000 
1 -5.07500000002125162 5.07500000000118501 1.00000000000000000 -0.00000000000000000 
1 0.00000000000000000 0.00000000000000000 1.00000000000000000 0.00000000000000000 
1 0.00000000000000000 -115.50000000000000000 1.00000000000000000 0.00000000000000000 
1 -5.07500000002125162 5.07500000000118501 1.00000000000000000 -0.00000000000000000 
1 0.00000000000000000 0.00000000000000000 1.00000000000000000 0.00000000000000000 
1 0.00000000000000000 -5.50000000000000000 1.00000000000000000 0.00000000000000000 
1 -5.07500000002125162 5.07500000000118501 1.00000000000000000 -0.00000000000000000 
1 0.00000000000000000 0.00000000000000000 1.00000000000000000 0.00000000000000000 
1 0.00000000000000000 -5.50000000000000000 1.00000000000000000 0.00000000000000000 
1 -5.07500000002125162 5.07500000000118501 1.00000000000000000 -0.00000000000000000 
1 0.00000000000000000 0.00000000000000000 1.00000000000000000 0.00000000000000000 
1 0.00000000000000000 -10.00000000000000000 1.00000000000000000 0.00000000000000000 
1 -5.07500000002125162 5.07500000000118501 0.00000000000274127 -1.00000000000000000 
1 0.00000000000000000 0.00000000000000000 1.00000000000000000 0.00000000000000000 
1 0.00000000000000000 -10.00000000000000000 1.00000000000000000 0.00000000000000000 
1 -5.07500000002125162 5.07500000000118501 0.00000000000274127 -1.00000000000000000 
1 0.00000000000000000 0.00000000000000000 1.00000000000000000 0.00000000000000000 
1 0.00000000000000000 -115.50000000000000000 1.00000000000000000 0.00000000000000000 
1 -5.07500000002125162 5.07500000000118501 0.00000000000274127 -1.00000000000000000 
1 0.00000000000000000 0.00000000000000000 1.00000000000000000 0.00000000000000000 
1 0.00000000000000000 -115.50000000000000000 1.00000000000000000 0.00000000000000000 
1 -5.07500000002125162 5.07500000000118501 0.00000000000274127 -1.00000000000000000 
1 0.00000000000000000 0.00000000000000000 1.00000000000000000 0.00000000000000000 
1 0.00000000000000000 -5.50000000000000000 1.00000000000000000 0.00000000000000000 
1 -5.07500000002125162 5.07500000000118501 0.00000000000274127 -1.00000000000000000 
1 0.00000000000000000 0.00000000000000000 1.00000000000000000 0.00000000000000000 
1 0.00000000000000000 -5.50000000000000000 1.00000000000000000 0.00000000000000000 
1 -5.07500000002125162 5.07500000000118501 0.00000000000274127 -1.00000000000000000 
Curves 12
1 2.57500000003981100 -5.07499999999745643 5.50000000000000000 0.00000000000000000 0.00000000000000000 1.00000000000000000 
1 5.07500000003981100 -5.07499999999850271 5.50000000000000000 0.00000000000000000 0.00000000000000000 1.00000000000000000 
1 2.57500000003981100 -5.07499999999745643 0.00000000000000000 1.00000000000000000 -0.00000000000041851 0.00000000000000000 
1 5.07500000002853024 -2.57499999999850271 5.50000000000000000 0.00000000000000000 0.00000000000000000 1.00000000000000000 
1 5.07500000003981100 -5.07499999999850271 0.00000000000000000 -0.00000000000451230 1.00000000000000000 0.00000000000000000 
1 2.57500000003981100 -5.07499999999745643 0.00000000000000000 0.70710678118510017 0.70710678118799486 0.00000000000000000 
1 -5.07499999999913864 2.57500000000597229 5.50000000000000000 0.00000000000000000 0.00000000000000000 1.00000000000000000 
1 -2.57500000000599183 5.07500000000597229 5.50000000000000000 0.00000000000000000 0.00000000000000000 1.00000000000000000 
1 -5.07499999999913864 2.57500000000597229 0.00000000000000000 0.70710678118557835 0.70710678118751669 0.00000000000000000 
1 -5.07500000000599183 5.07500000000597229 5.50000000000000000 0.00000000000000000 0.00000000000000000 1.00000000000000000 
1 -5.07500000000599183 5.07500000000597229 0.00000000000000000 1.00000000000000000 0.00000000000000000 0.00000000000000000 
1 -5.07500000000599183 5.07500000000597229 0.00000000000000000 0.00000000000274127 -1.00000000000000000 0.00000000000000000 
Polygon3D 0
PolygonOnTriangulations 0
Surfaces 49
1 2.57500000003981100 -5.07499999999745643 5.50000000000000000 0.00000000000041851 1.00000000000000000 -0.00000000000000000 1.00000000000000000 -0.00000000000041851 0.00000000000000000 0.00000000000000000 -0.00000000000000000 -1.00000000000000000 
1 2.57500000003981100 -5.07499999999745643 5.50000000000000000 -0.70710678118799486 0.70710678118510017 0.00000000000000000 0.70710678118510017 0.70710678118799486 0.00000000000000000 0.00000000000000000 0.00000000000000000 -1.00000000000000000 
1 5.07500000003981100 -5.07499999999850271 5.50000000000000000 -1.00000000000000000 -0.00000000000451230 0.00000000000000000 -0.00000000000451230 1.00000000000000000 0.00000000000000000 -0.00000000000000000 0.00000000000000000 -1.00000000000000000 
1 2.57500000003981100 -5.07499999999745643 5.50000000000000000 0.00000000000041851 1.00000000000000000 -0.00000000000000000 1.00000000000000000 -0.00000000000041851 0.00000000000000000 0.00000000000000000 -0.00000000000000000 -1.00000000000000000 
1 0.00000000001525969 0.00000000000478738 5.50000000000000178 -0.00000000000000000 -0.00000000000000000 1.00000000000000000 1.00000000000000000 0.00000000000000000 0.00000000000000000 -0.00000000000000000 1.00000000000000000 0.00000000000000000 
1 2.57500000003981100 -5.07499999999745643 5.50000000000000000 0.00000000000041851 1.00000000000000000 -0.00000000000000000 1.00000000000000000 -0.00000000000041851 0.00000000000000000 0.00000000000000000 -0.00000000000000000 -1.00000000000000000 
1 0.00000000001525969 0.00000000000478738 5.50000000000000178 -0.00000000000000000 -0.00000000000000000 1.00000000000000000 1.00000000000000000 0.00000000000000000 0.00000000000000000 -0.00000000000000000 1.00000000000000000 0.00000000000000000 
1 2.57500000003981100 -5.07499999999745643 5.50000000000000000 0.00000000000041851 1.00000000000000000 -0.00000000000000000 1.00000000000000000 -0.00000000000041851 0.00000000000000000 0.00000000000000000 -0.00000000000000000 -1.00000000000000000 
1 0.00000000001525969 0.00000000000478738 5.50000000000000178 -0.00000000000000000 -0.00000000000000000 1.00000000000000000 1.00000000000000000 0.00000000000000000 0.00000000000000000 -0.00000000000000000 1.00000000000000000 0.00000000000000000 
1 2.57500000003981100 -5.07499999999745643 5.50000000000000000 0.00000000000041851 1.00000000000000000 -0.00000000000000000 1.00000000000000000 -0.00000000000041851 0.00000000000000000 0.00000000000000000 -0.00000000000000000 -1.00000000000000000 
1 0.00000000001525969 0.00000000000478738 5.50000000000000178 -0.00000000000000000 -0.00000000000000000 1.00000000000000000 1.00000000000000000 0.00000000000000000 0.00000000000000000 -0.00000000000000000 1.00000000000000000 0.00000000000000000 
1 2.57500000003981100 -5.07499999999745643 5.50000000000000000 0.00000000000041851 1.00000000000000000 -0.00000000000000000 1.00000000000000000 -0.00000000000041851 0.00000000000000000 0.00000000000000000 -0.00000000000000000 -1.00000000000000000 
1 0.00000000001525969 0.00000000000478738 5.50000000000000178 -0.00000000000000000 -0.00000000000000000 1.00000000000000000 1.00000000000000000 0.00000000000000000 0.00000000000000000 -0.00000000000000000 1.00000000000000000 0.00000000000000000 
1 0.00000000001525969 0.00000000000478738 5.50000000000000178 -0.00000000000000000 -0.00000000000000000 1.00000000000000000 1.00000000000000000 0.00000000000000000 0.00000000000000000 -0.00000000000000000 1.00000000000000000 0.00000000000000000 
1 5.07500000003981100 -5.07499999999850271 5.50000000000000000 -1.00000000000000000 -0.00000000000451230 0.00000000000000000 -0.00000000000451230 1.00000000000000000 0.00000000000000000 -0.00000000000000000 0.00000000000000000 -1.00000000000000000 
1 5.07500000003981100 -5.07499999999850271 5.50000000000000000 -1.00000000000000000 -0.00000000000451230 0.00000000000000000 -0.00000000000451230 1.00000000000000000 0.00000000000000000 -0.00000000000000000 0.00000000000000000 -1.00000000000000000 
1 5.07500000003981100 -5.07499999999850271 5.50000000000000000 -1.00000000000000000 -0.00000000000451230 0.00000000000000000 -0.00000000000451230 1.00000000000000000 0.00000000000000000 -0.00000000000000000 0.00000000000000000 -1.00000000000000000 
1 5.07500000003981100 -5.07499999999850271 5.50000000000000000 -1.00000000000000000 -0.00000000000451230 0.00000000000000000 -0.00000000000451230 1.00000000000000000 0.00000000000000000 -0.00000000000000000 0.00000000000000000 -1.00000000000000000 
1 5.07500000003981100 -5.07499999999850271 5.50000000000000000 -1.00000000000000000 -0.00000000000451230 0.00000000000000000 -0.00000000000451230 1.00000000000000000 0.00000000000000000 -0.00000000000000000 0.00000000000000000 -1.00000000000000000 
1 2.57500000003981100 -5.07499999999745643 5.50000000000000000 -0.70710678118799486 0.70710678118510017 0.00000000000000000 0.70710678118510017 0.70710678118799486 0.00000000000000000 0.00000000000000000 0.00000000000000000 -1.00000000000000000 
1 0.00000000001294562 0.00000000000254885 0.00000000000000000 0.00000000000000000 0.00000000000000000 1.00000000000000000 1.00000000000000000 0.00000000000000000 -0.00000000000000000 -0.00000000000000000 1.00000000000000000 0.00000000000000000 
1 2.57500000003981100 -5.07499999999745643 5.50000000000000000 -0.70710678118799486 0.70710678118510017 0.00000000000000000 0.70710678118510017 0.70710678118799486 0.00000000000000000 0.00000000000000000 0.00000000000000000 -1.00000000000000000 
1 2.57500000003981100 -5.07499999999745643 5.50000000000000000 -0.70710678118799486 0.70710678118510017 0.00000000000000000 0.70710678118510017 0.70710678118799486 0.00000000000000000 0.00000000000000000 0.00000000000000000 -1.00000000000000000 
1 2.57500000003981100 -5.07499999999745643 5.50000000000000000 -0.70710678118799486 0.70710678118510017 0.00000000000000000 0.70710678118510017 0.70710678118799486 0.00000000000000000 0.00000000000000000 0.00000000000000000 -1.00000000000000000 
1 2.57500000003981100 -5.07499999999745643 5.50000000000000000 -0.70710678118799486 0.70710678118510017 0.00000000000000000 0.70710678118510017 0.70710678118799486 0.00000000000000000 0.00000000000000000 0.00000000000000000 -1.00000000000000000 
1 -5.07499999999913864 2.57500000000597229 5.50000000000000000 -0.70710678118751669 0.70710678118557835 0.00000000000000000 0.70710678118557835 0.70710678118751669 0.00000000000000000 0.00000000000000000 0.00000000000000000 -1.00000000000000000 
1 -5.07500000000599183 5.07500000000597229 5.50000000000000000 1.00000000000000000 0.00000000000274127 -0.00000000000000000 0.00000000000274127 -1.00000000000000000 0.00000000000000000 0.00000000000000000 -0.00000000000000000 -1.00000000000000000 
1 -5.07500000000599183 5.07500000000597229 5.50000000000000000 0.00000000000000000 1.00000000000000000 0.00000000000000000 1.00000000000000000 0.00000000000000000 0.00000000000000000 0.00000000000000000 0.00000000000000000 -1.00000000000000000 
1 -5.07499999999913864 2.57500000000597229 5.50000000000000000 -0.70710678118751669 0.70710678118557835 0.00000000000000000 0.70710678118557835 0.70710678118751669 0.00000000000000000 0.00000000000000000 0.00000000000000000 -1.00000000000000000 
1 0.00000000001525969 0.00000000000478738 5.50000000000000178 -0.00000000000000000 -0.00000000000000000 1.00000000000000000 1.00000000000000000 0.00000000000000000 0.00000000000000000 -0.00000000000000000 1.00000000000000000 0.00000000000000000 
1 -5.07499999999913864 2.57500000000597229 5.50000000000000000 -0.70710678118751669 0.70710678118557835 0.00000000000000000 0.70710678118557835 0.70710678118751669 0.00000000000000000 0.00000000000000000 0.00000000000000000 -1.00000000000000000 
1 0.00000000001525969 0.00000000000478738 5.50000000000000178 -0.00000000000000000 -0.00000000000000000 1.00000000000000000 1.00000000000000000 0.00000000000000000 0.00000000000000000 -0.00000000000000000 1.00000000000000000 0.00000000000000000 
1 -5.07499999999913864 2.57500000000597229 5.50000000000000000 -0.70710678118751669 0.70710678118557835 0.00000000000000000 0.70710678118557835 0.70710678118751669 0.00000000000000000 0.00000000000000000 0.00000000000000000 -1.00000000000000000 
1 0.00000000001525969 0.00000000000478738 5.50000000000000178 -0.00000000000000000 -0.00000000000000000 1.00000000000000000 1.00000000000000000 0.00000000000000000 0.00000000000000000 -0.00000000000000000 1.00000000000000000 0.00000000000000000 
1 -5.07499999999913864 2.57500000000597229 5.50000000000000000 -0.70710678118751669 0.70710678118557835 0.00000000000000000 0.70710678118557835 0.70710678118751669 0.00000000000000000 0.00000000000000000 0.00000000000000000 -1.00000000000000000 
1 0.00000000001525969 0.00000000000478738 5.50000000000000178 -0.00000000000000000 -0.00000000000000000 1.00000000000000000 1.00000000000000000 0.00000000000000000 0.00000000000000000 -0.00000000000000000 1.00000000000000000 0.00000000000000000 
1 -5.07499999999913864 2.57500000000597229 5.50000000000000000 -0.70710678118751669 0.70710678118557835 0.00000000000000000 0.70710678118557835 0.70710678118751669 0.00000000000000000 0.00000000000000000 0.00000000000000000 -1.00000000000000000 
1 0.00000000001525969 0.00000000000478738 5.50000000000000178 -0.00000000000000000 -0.00000000000000000 1.00000000000000000 1.00000000000000000 0.00000000000000000 0.00000000000000000 -0.00000000000000000 1.00000000000000000 0.00000000000000000 
1 0.00000000001525969 0.00000000000478738 5.50000000000000178 -0.00000000000000000 -0.00000000000000000 1.00000000000000000 1.00000000000000000 0.00000000000000000 0.00000000000000000 -0.00000000000000000 1.00000000000000000 0.00000000000000000 
1 -5.07500000000599183 5.07500000000597229 5.50000000000000000 0.00000000000000000 1.00000000000000000 0.00000000000000000 1.00000000000000000 0.00000000000000000 0.00000000000000000 0.00000000000000000 0.00000000000000000 -1.00000000000000000 
1 -5.07500000000599183 5.07500000000597229 5.50000000000000000 0.00000000000000000 1.00000000000000000 0.00000000000000000 1.00000000000000000 0.00000000000000000 0.00000000000000000 0.00000000000000000 0.00000000000000000 -1.00000000000000000 
1 -5.07500000000599183 5.07500000000597229 5.50000000000000000 0.00000000000000000 1.00000000000000000 0.00000000000000000 1.00000000000000000 0.00000000000000000 0.00000000000000000 0.00000000000000000 0.00000000000000000 -1.00000000000000000 
1 -5.07500000000599183 5.07500000000597229 5.50000000000000000 0.00000000000000000 1.00000000000000000 0.00000000000000000 1.00000000000000000 0.00000000000000000 0.00000000000000000 0.00000000000000000 0.00000000000000000 -1.00000000000000000 
1 -5.07500000000599183 5.07500000000597229 5.50000000000000000 0.00000000000000000 1.00000000000000000 0.00000000000000000 1.00000000000000000 0.00000000000000000 0.00000000000000000 0.00000000000000000 0.00000000000000000 -1.00000000000000000 
1 -5.07500000000599183 5.07500000000597229 5.50000000000000000 1.00000000000000000 0.00000000000274127 -0.00000000000000000 0.00000000000274127 -1.00000000000000000 0.00000000000000000 0.00000000000000000 -0.00000000000000000 -1.00000000000000000 
1 -5.07500000000599183 5.07500000000597229 5.50000000000000000 1.00000000000000000 0.00000000000274127 -0.00000000000000000 0.00000000000274127 -1.00000000000000000 0.00000000000000000 0.00000000000000000 -0.00000000000000000 -1.00000000000000000 
1 -5.07500000000599183 5.07500000000597229 5.50000000000000000 1.00000000000000000 0.00000000000274127 -0.00000000000000000 0.00000000000274127 -1.00000000000000000 0.00000000000000000 0.00000000000000000 -0.00000000000000000 -1.00000000000000000 
1 -5.07500000000599183 5.07500000000597229 5.50000000000000000 1.00000000000000000 0.00000000000274127 -0.00000000000000000 0.00000000000274127 -1.00000000000000000 0.00000000000000000 0.00000000000000000 -0.00000000000000000 -1.00000000000000000 
1 -5.07500000000599183 5.07500000000597229 5.50000000000000000 1.00000000000000000 0.00000000000274127 -0.00000000000000000 0.00000000000274127 -1.00000000000000000 0.00000000000000000 0.00000000000000000 -0.00000000000000000 -1.00000000000000000 
Triangulations 0

TShapes 39
Ve
0.000000100000001
2.575000000039811 -5.074999999997456 0.000000000000000
0 0

0101101
*
Ed
 0.000000100000001 1 1 0
1  1 0 0.000000000000000 5.500000000000000
2  1 1 0 0.000000000000000 5.500000000000000
2  2 2 0 0.000000000000000 5.500000000000000
0

0101000
+39 4 -39 6 *
Ve
0.000000100000000
5.075000000039811 -5.074999999998503 0.000000000000000
0 0

0101101
*
Ed
 0.000000100000000 1 1 0
1  2 0 0.000000000000000 5.500000000000000
2  3 1 0 0.000000000000000 5.500000000000000
2  4 3 0 0.000000000000000 5.500000000000000
0

0101000
+37 4 -37 6 *
Ed
 0.000000100000000 1 1 0
1  3 0 0.000000000000000 2.500000000000000
2  5 4 10 0.000000000000000 2.500000000000000
2  6 4 12 0.000000000000000 2.500000000000000
2  7 5 13 0.000000000000000 2.500000000000000
2  8 6 17 0.000000000000000 2.500000000000000
2  9 6 19 0.000000000000000 2.500000000000000
2  10 7 20 0.000000000000000 2.500000000000000
2  11 8 24 0.000000000000000 2.500000000000000
2  12 8 26 0.000000000000000 2.500000000000000
2  13 9 27 0.000000000000000 2.500000000000000
2  14 10 31 0.000000000000000 2.500000000000000
2  15 10 33 0.000000000000000 2.500000000000000
2  16 11 34 0.000000000000000 2.500000000000000
2  17 12 38 0.000000000000000 2.500000000000000
2  18 12 40 0.000000000000000 2.500000000000000
2  19 13 41 0.000000000000000 2.500000000000000
2  20 1 42 0.000000000000000 2.500000000000000
2  21 1 43 0.000000000000000 2.500000000000000
2  22 14 44 0.000000000000000 2.500000000000000
0

0101000
+39 0 -37 0 *
Wi

0101100
+38 0 -36 0 -35 4 +35 6 *
Fa
0  0.000000100000000 1 0

0111000
+34 0 *
Ve
0.000000100017612
5.075000000028530 -2.574999999998503 0.000000000000000
0 0

0101101
*
Ed
 0.000000100000001 1 1 0
1  4 0 0.000000000000000 5.500000000000000
2  23 3 0 0.000000000000000 5.500000000000000
2  24 2 0 0.000000000000000 5.500000000000000
0

0101000
+32 4 -32 6 *
Ed
 0.000000100000000 1 1 0
1  5 0 0.000000000000000 2.500000000000000
2  25 15 10 0.000000000000000 2.500000000000000
2  26 15 12 0.000000000000000 2.500000000000000
2  27 5 13 0.000000000000000 2.500000000000000
2  28 16 17 0.000000000000000 2.500000000000000
2  29 16 19 0.000000000000000 2.500000000000000
2  30 7 20 0.000000000000000 2.500000000000000
2  31 17 24 0.000000000000000 2.500000000000000
2  32 17 26 0.000000000000000 2.500000000000000
2  33 9 27 0.000000000000000 2.500000000000000
2  34 18 31 0.000000000000000 2.500000000000000
2  35 18 33 0.000000000000000 2.500000000000000
2  36 11 34 0.000000000000000 2.500000000000000
2  37 19 38 0.000000000000000 2.500000000000000
2  38 19 40 0.000000000000000 2.500000000000000
2  39 13 41 0.000000000000000 2.500000000000000
2  40 3 42 0.000000000000000 2.500000000000000
2  41 3 43 0.000000000000000 2.500000000000000
2  42 14 44 0.000000000000000 2.500000000000000
0

0101000
+37 0 -32 0 *
Wi

0101100
+36 0 -31 0 -30 4 +30 6 *
Fa
0  0.000000100000000 3 0

0111000
+29 0 *
Ed
 0.000000100000000 1 1 0
1  6 0 0.000000000000000 3.535533905924021
2  43 20 10 0.000000000000000 3.535533905924021
2  44 20 12 0.000000000000000 3.535533905924021
2  45 5 13 0.000000000000000 3.535533905924021
2  46 21 48 0.000000000000000 3.535533905924021
2  47 22 17 0.000000000000000 3.535533905924021
2  48 22 19 0.000000000000000 3.535533905924021
2  49 7 20 0.000000000000000 3.535533905924021
2  50 21 49 0.000000000000000 3.535533905924021
2  51 23 24 0.000000000000000 3.535533905924021
2  52 23 26 0.000000000000000 3.535533905924021
2  53 9 27 0.000000000000000 3.535533905924021
2  54 21 50 0.000000000000000 3.535533905924021
2  55 24 31 0.000000000000000 3.535533905924021
2  56 24 33 0.000000000000000 3.535533905924021
2  57 11 34 0.000000000000000 3.535533905924021
2  58 21 51 0.000000000000000 3.535533905924021
2  59 25 38 0.000000000000000 3.535533905924021
2  60 25 40 0.000000000000000 3.535533905924021
2  61 13 41 0.000000000000000 3.535533905924021
2  62 21 52 0.000000000000000 3.535533905924021
2  63 2 42 0.000000000000000 3.535533905924021
2  64 2 43 0.000000000000000 3.535533905924021
2  65 14 44 0.000000000000000 3.535533905924021
2  66 21 53 0.000000000000000 3.535533905924021
0

0101000
+39 0 -32 0 *
Wi

0101100
+38 0 -31 0 -27 4 +27 6 *
Fa
0  0.000000100000000 2 0

0111000
+26 0 *
Wi

0101100
+35 0 +30 0 -27 0 *
Fa
0  0.000000100000000 14 0

0111000
+24 55 *
Sh

0101100
+33 0 +28 0 -25 0 +23 54 -23 56 *
So

0100000
-22 0 *
Ve
0.000000100000000
-5.074999999999139 2.575000000005972 0.000000000000000
0 0

0101101
*
Ed
 0.000000100000000 1 1 0
1  7 0 0.000000000000000 5.500000000000000
2  67 26 0 0.000000000000000 5.500000000000000
2  68 27 0 0.000000000000000 5.500000000000000
0

0101000
+20 4 -20 6 *
Ve
0.000000100000000
-2.575000000005992 5.075000000005972 0.000000000000000
0 0

0101101
*
Ed
 0.000000100000000 1 1 0
1  8 0 0.000000000000000 5.500000000000000
2  69 26 0 0.000000000000000 5.500000000000000
2  70 28 0 0.000000000000000 5.500000000000000
0

0101000
+18 4 -18 6 *
Ed
 0.000000100000000 1 1 0
1  9 0 0.000000000000000 3.535533905927892
2  71 29 10 0.000000000000000 3.535533905927892
2  72 29 12 0.000000000000000 3.535533905927892
2  73 30 13 0.000000000000000 3.535533905927892
2  74 21 48 0.000000000000000 3.535533905927892
2  75 31 17 0.000000000000000 3.535533905927892
2  76 31 19 0.000000000000000 3.535533905927892
2  77 32 20 0.000000000000000 3.535533905927892
2  78 21 49 0.000000000000000 3.535533905927892
2  79 33 24 0.000000000000000 3.535533905927892
2  80 33 26 0.000000000000000 3.535533905927892
2  81 34 27 0.000000000000000 3.535533905927892
2  82 21 50 0.000000000000000 3.535533905927892
2  83 35 31 0.000000000000000 3.535533905927892
2  84 35 33 0.000000000000000 3.535533905927892
2  85 36 34 0.000000000000000 3.535533905927892
2  86 21 51 0.000000000000000 3.535533905927892
2  87 37 38 0.000000000000000 3.535533905927892
2  88 37 40 0.000000000000000 3.535533905927892
2  89 38 41 0.000000000000000 3.535533905927892
2  90 21 52 0.000000000000000 3.535533905927892
2  91 26 42 0.000000000000000 3.535533905927892
2  92 26 43 0.000000000000000 3.535533905927892
2  93 39 44 0.000000000000000 3.535533905927892
2  94 21 53 0.000000000000000 3.535533905927892
0

0101000
+20 0 -18 0 *
Wi

0101100
+19 0 -17 0 -16 4 +16 6 *
Fa
0  0.000000100000000 26 0

0111000
+15 0 *
Ve
0.000000100000000
-5.075000000005992 5.075000000005972 0.000000000000000
0 0

0101101
*
Ed
 0.000000100000000 1 1 0
1  10 0 0.000000000000000 5.500000000000000
2  95 28 0 0.000000000000000 5.500000000000000
2  96 27 0 0.000000000000000 5.500000000000000
0

0101000
+13 4 -13 6 *
Ed
 0.000000100000000 1 1 0
1  11 0 0.000000000000000 2.500000000000000
2  97 40 10 0.000000000000000 2.500000000000000
2  98 40 12 0.000000000000000 2.500000000000000
2  99 30 13 0.000000000000000 2.500000000000000
2  100 41 17 0.000000000000000 2.500000000000000
2  101 41 19 0.000000000000000 2.500000000000000
2  102 32 20 0.000000000000000 2.500000000000000
2  103 42 24 0.000000000000000 2.500000000000000
2  104 42 26 0.000000000000000 2.500000000000000
2  105 34 27 0.000000000000000 2.500000000000000
2  106 43 31 0.000000000000000 2.500000000000000
2  107 43 33 0.000000000000000 2.500000000000000
2  108 36 34 0.000000000000000 2.500000000000000
2  109 44 38 0.000000000000000 2.500000000000000
2  110 44 40 0.000000000000000 2.500000000000000
2  111 38 41 0.000000000000000 2.500000000000000
2  112 28 42 0.000000000000000 2.500000000000000
2  113 28 43 0.000000000000000 2.500000000000000
2  114 39 44 0.000000000000000 2.500000000000000
0

0101000
+13 0 -18 0 *
Wi

0101100
+12 0 -17 0 -11 4 +11 6 *
Fa
0  0.000000100000000 28 0

0111000
+10 0 *
Ed
 0.000000100000000 1 1 0
1  12 0 0.000000000000000 2.500000000000000
2  115 45 10 0.000000000000000 2.500000000000000
2  116 45 12 0.000000000000000 2.500000000000000
2  117 30 13 0.000000000000000 2.500000000000000
2  118 46 17 0.000000000000000 2.500000000000000
2  119 46 19 0.000000000000000 2.500000000000000
2  120 32 20 0.000000000000000 2.500000000000000
2  121 47 24 0.000000000000000 2.500000000000000
2  122 47 26 0.000000000000000 2.500000000000000
2  123 34 27 0.000000000000000 2.500000000000000
2  124 48 31 0.000000000000000 2.500000000000000
2  125 48 33 0.000000000000000 2.500000000000000
2  126 36 34 0.000000000000000 2.500000000000000
2  127 49 38 0.000000000000000 2.500000000000000
2  128 49 40 0.000000000000000 2.500000000000000
2  129 38 41 0.000000000000000 2.500000000000000
2  130 27 42 0.000000000000000 2.500000000000000
2  131 27 43 0.000000000000000 2.500000000000000
2  132 39 44 0.000000000000000 2.500000000000000
0

0101000
+13 0 -20 0 *
Wi

0101100
+12 0 -19 0 -8 4 +8 6 *
Fa
0  0.000000100000000 27 0

0111000
+7 0 *
Wi

0101100
+16 0 -11 0 +8 0 *
Fa
0  0.000000100000000 39 0

0111000
+5 55 *
Sh

0101100
+14 0 -9 0 +6 0 +4 54 -4 56 *
So

0100000
-3 0 *
Co

1100000
+21 0 +2 0 *

+1 0 