
CASCADE Topology V1, (c) Matra-Datavision
Locations 84
1
1.000000000000000 0.000000000000000 0.000000000000000 0.000000000000000 
0.000000000000000 1.000000000000000 0.000000000000000 0.000000000000000 
0.000000000000000 0.000000000000000 1.000000000000000 0.000000000000000 
1
1.000000000000000 0.000000000000000 0.000000000000000 0.000000000000000 
0.000000000000000 1.000000000000000 0.000000000000000 0.000000000000000 
0.000000000000000 0.000000000000000 1.000000000000000 0.000000000000000 
1
1.000000000000000 0.000000000000000 0.000000000000000 0.000000000000000 
0.000000000000000 1.000000000000000 0.000000000000000 0.000000000000000 
0.000000000000000 0.000000000000000 1.000000000000000 0.000000000000000 
2  2 1 3 -1 0
1
1.000000000000000 0.000000000000000 0.000000000000000 0.000000000000000 
0.000000000000000 1.000000000000000 0.000000000000000 0.000000000000000 
0.000000000000000 0.000000000000000 1.000000000000000 0.000000000000000 
1
1.000000000000000 0.000000000000000 0.000000000000000 0.000000000000000 
0.000000000000000 1.000000000000000 0.000000000000000 0.000000000000000 
0.000000000000000 0.000000000000000 1.000000000000000 0.000000000000000 
1
1.000000000000000 0.000000000000000 0.000000000000000 0.000000000000000 
0.000000000000000 1.000000000000000 0.000000000000000 0.000000000000000 
0.000000000000000 0.000000000000000 1.000000000000000 0.000000000000000 
2  5 1 6 1 7 -1 0
2  3 1 2 -1 0
1
1.000000000000000 0.000000000000000 0.000000000000000 0.000000000000000 
0.000000000000000 1.000000000000000 0.000000000000000 0.000000000000000 
0.000000000000000 0.000000000000000 1.000000000000000 5.500000000000000 
2  5 1 6 1 7 -1 10 1 0
2  5 1 6 1 7 -1 2 1 3 -1 0
2  7 1 6 -1 5 -1 0
2  10 -1 7 1 6 -1 5 -1 0
2  6 -1 5 -1 0
2  5 1 6 1 7 -1 10 1 2 1 3 -1 0
2  3 1 2 -1 10 -1 7 1 6 -1 5 -1 0
1
1.000000000000000 0.000000000000000 0.000000000000000 0.000000000000000 
0.000000000000000 1.000000000000000 0.000000000000000 0.000000000000000 
0.000000000000000 0.000000000000000 1.000000000000000 0.000000000000000 
1
1.000000000000000 0.000000000000000 0.000000000000000 0.000000000000000 
0.000000000000000 1.000000000000000 0.000000000000000 0.000000000000000 
0.000000000000000 0.000000000000000 1.000000000000000 5.500000000000000 
2  18 1 19 1 2 -1 10 -1 7 1 6 -1 5 -1 0
1
1.000000000000000 0.000000000000000 0.000000000000000 0.000000000000000 
0.000000000000000 1.000000000000000 0.000000000000000 0.000000000000000 
0.000000000000000 0.000000000000000 1.000000000000000 0.000000000000000 
1
1.000000000000000 0.000000000000000 0.000000000000000 7.894444444444444 
0.000000000000000 1.000000000000000 0.000000000000000 0.000000000000000 
0.000000000000000 0.000000000000000 1.000000000000000 0.000000000000000 
1
1.000000000000000 0.000000000000000 0.000000000000000 0.000000000000000 
0.000000000000000 1.000000000000000 0.000000000000000 0.000000000000000 
0.000000000000000 0.000000000000000 1.000000000000000 0.000000000000000 
2  21 1 22 1 23 -1 3 1 2 -1 0
1
1.000000000000000 0.000000000000000 0.000000000000000 0.000000000000000 
0.000000000000000 1.000000000000000 0.000000000000000 0.000000000000000 
0.000000000000000 0.000000000000000 1.000000000000000 0.000000000000000 
1
1.000000000000000 0.000000000000000 0.000000000000000 8.881250000000000 
0.000000000000000 1.000000000000000 0.000000000000000 0.000000000000000 
0.000000000000000 0.000000000000000 1.000000000000000 0.000000000000000 
1
1.000000000000000 0.000000000000000 0.000000000000000 0.000000000000000 
0.000000000000000 1.000000000000000 0.000000000000000 0.000000000000000 
0.000000000000000 0.000000000000000 1.000000000000000 0.000000000000000 
2  25 1 26 1 27 -1 3 1 2 -1 0
2  7 -1 2 1 3 -1 0
2  5 1 6 1 0
2  7 -1 21 1 22 1 23 -1 3 1 2 -1 7 1 6 -1 5 -1 0
2  7 -1 25 1 26 1 27 -1 3 1 2 -1 7 1 6 -1 5 -1 0
1
1.000000000000000 0.000000000000000 0.000000000000000 0.000000000000000 
0.000000000000000 1.000000000000000 0.000000000000000 0.000000000000000 
0.000000000000000 0.000000000000000 1.000000000000000 5.500000000000000 
2  18 1 19 1 3 -1 33 1 0
2  18 1 19 1 3 -1 0
1
1.000000000000000 0.000000000000000 0.000000000000000 0.000000000000000 
0.000000000000000 1.000000000000000 0.000000000000000 0.000000000000000 
0.000000000000000 0.000000000000000 1.000000000000000 0.000000000000000 
1
1.000000000000000 0.000000000000000 0.000000000000000 0.000000000000000 
0.000000000000000 1.000000000000000 0.000000000000000 0.000000000000000 
0.000000000000000 0.000000000000000 1.000000000000000 5.500000000000000 
1
1.000000000000000 0.000000000000000 0.000000000000000 0.000000000000000 
0.000000000000000 1.000000000000000 0.000000000000000 0.000000000000000 
0.000000000000000 0.000000000000000 1.000000000000000 0.000000000000000 
2  36 1 37 -1 38 -1 0
1
1.000000000000000 0.000000000000000 0.000000000000000 0.000000000000000 
0.000000000000000 1.000000000000000 0.000000000000000 0.000000000000000 
0.000000000000000 0.000000000000000 1.000000000000000 10.000000000000000 
2  40 -1 36 1 37 -1 38 -1 0
2  37 -1 38 -1 0
1
1.000000000000000 0.000000000000000 0.000000000000000 0.000000000000000 
0.000000000000000 1.000000000000000 0.000000000000000 0.000000000000000 
0.000000000000000 0.000000000000000 1.000000000000000 0.000000000000000 
1
1.000000000000000 0.000000000000000 0.000000000000000 0.000000000000000 
0.000000000000000 1.000000000000000 0.000000000000000 0.000000000000000 
0.000000000000000 0.000000000000000 1.000000000000000 5.500000000000000 
1
1.000000000000000 0.000000000000000 0.000000000000000 0.000000000000000 
0.000000000000000 1.000000000000000 0.000000000000000 0.000000000000000 
0.000000000000000 0.000000000000000 1.000000000000000 0.000000000000000 
2  43 1 44 -1 45 -1 0
1
1.000000000000000 0.000000000000000 0.000000000000000 0.000000000000000 
0.000000000000000 1.000000000000000 0.000000000000000 0.000000000000000 
0.000000000000000 0.000000000000000 1.000000000000000 10.000000000000000 
2  47 -1 43 1 44 -1 45 -1 0
2  44 -1 45 -1 0
1
1.000000000000000 0.000000000000000 0.000000000000000 0.000000000000000 
0.000000000000000 1.000000000000000 0.000000000000000 0.000000000000000 
0.000000000000000 0.000000000000000 1.000000000000000 0.000000000000000 
1
1.000000000000000 0.000000000000000 0.000000000000000 0.000000000000000 
0.000000000000000 1.000000000000000 0.000000000000000 0.000000000000000 
0.000000000000000 0.000000000000000 1.000000000000000 5.500000000000000 
1
1.000000000000000 0.000000000000000 0.000000000000000 0.000000000000000 
0.000000000000000 1.000000000000000 0.000000000000000 0.000000000000000 
0.000000000000000 0.000000000000000 1.000000000000000 0.000000000000000 
2  50 1 51 -1 52 -1 0
1
1.000000000000000 0.000000000000000 0.000000000000000 0.000000000000000 
0.000000000000000 1.000000000000000 0.000000000000000 0.000000000000000 
0.000000000000000 0.000000000000000 1.000000000000000 115.500000000000000 
2  54 -1 50 1 51 -1 52 -1 0
2  51 -1 52 -1 0
1
1.000000000000000 0.000000000000000 0.000000000000000 0.000000000000000 
0.000000000000000 1.000000000000000 0.000000000000000 0.000000000000000 
0.000000000000000 0.000000000000000 1.000000000000000 0.000000000000000 
1
1.000000000000000 0.000000000000000 0.000000000000000 0.000000000000000 
0.000000000000000 1.000000000000000 0.000000000000000 0.000000000000000 
0.000000000000000 0.000000000000000 1.000000000000000 5.500000000000000 
1
1.000000000000000 0.000000000000000 0.000000000000000 0.000000000000000 
0.000000000000000 1.000000000000000 0.000000000000000 0.000000000000000 
0.000000000000000 0.000000000000000 1.000000000000000 0.000000000000000 
2  57 1 58 -1 59 -1 0
1
1.000000000000000 0.000000000000000 0.000000000000000 0.000000000000000 
0.000000000000000 1.000000000000000 0.000000000000000 0.000000000000000 
0.000000000000000 0.000000000000000 1.000000000000000 115.500000000000000 
2  61 -1 57 1 58 -1 59 -1 0
2  58 -1 59 -1 0
1
1.000000000000000 0.000000000000000 0.000000000000000 0.000000000000000 
0.000000000000000 1.000000000000000 0.000000000000000 0.000000000000000 
0.000000000000000 0.000000000000000 1.000000000000000 0.000000000000000 
1
1.000000000000000 0.000000000000000 0.000000000000000 0.000000000000000 
0.000000000000000 1.000000000000000 0.000000000000000 0.000000000000000 
0.000000000000000 0.000000000000000 1.000000000000000 5.500000000000000 
1
1.000000000000000 0.000000000000000 0.000000000000000 0.000000000000000 
0.000000000000000 1.000000000000000 0.000000000000000 0.000000000000000 
0.000000000000000 0.000000000000000 1.000000000000000 0.000000000000000 
2  64 1 65 -1 66 -1 0
1
1.000000000000000 0.000000000000000 0.000000000000000 0.000000000000000 
0.000000000000000 1.000000000000000 0.000000000000000 0.000000000000000 
0.000000000000000 0.000000000000000 1.000000000000000 5.500000000000000 
2  68 -1 64 1 65 -1 66 -1 0
2  65 -1 66 -1 0
2  3 1 19 -1 18 -1 0
2  33 -1 3 1 19 -1 18 -1 0
2  19 -1 18 -1 0
2  7 -1 10 1 2 1 3 -1 0
2  7 -1 10 1 2 1 37 -1 38 -1 0
2  7 -1 10 1 2 1 44 -1 45 -1 0
2  7 -1 10 1 2 1 51 -1 52 -1 0
2  7 -1 10 1 2 1 58 -1 59 -1 0
2  7 -1 10 1 2 1 65 -1 66 -1 0
2  7 -1 10 1 2 1 19 -1 18 -1 0
2  7 -1 10 1 21 1 22 1 23 -1 3 1 2 -1 10 -1 7 1 6 -1 5 -1 0
2  7 -1 10 1 25 1 26 1 27 -1 3 1 2 -1 10 -1 7 1 6 -1 5 -1 0
2  3 -1 33 1 0
2  18 1 19 1 0
Curve2ds 162
1 0.00000000000000000 0.00000000000000000 0.00000000000000000 -1.00000000000000000 
1 10.15000000000000213 0.00000000000000000 0.00000000000000000 -1.00000000000000000 
1 10.15000000000022951 0.00000000000000000 0.00000000000000000 -1.00000000000000000 
1 0.00000000000000000 0.00000000000000000 0.00000000000000000 -1.00000000000000000 
1 0.00000000000000000 0.00000000000000000 1.00000000000000000 0.00000000000000000 
1 0.00000000000000000 -5.50000000000000000 1.00000000000000000 0.00000000000000000 
1 -5.07500000001893703 5.07500000000342322 0.00000000000274110 -1.00000000000000000 
1 10.15000000000447500 0.00000000000000000 0.00000000000000000 -1.00000000000000000 
1 0.00000000000000000 -0.00000000000000000 0.00000000000000000 -1.00000000000000000 
1 7.89444444444444393 0.00000000000000000 0.00000000000000000 -1.00000000000000000 
1 8.88124999999999964 0.00000000000000000 0.00000000000000000 -1.00000000000000000 
1 0.00000000000000000 -0.00000000000000000 1.00000000000000000 0.00000000000000000 
1 0.00000000000000000 -5.50000000000000000 1.00000000000000000 0.00000000000000000 
1 5.07499999998106510 5.07500000000342322 -1.00000000000000000 0.00000000000000000 
1 10.15000000001798064 0.00000000000000000 0.00000000000000000 -1.00000000000000000 
1 0.00000000000000000 0.00000000000000000 0.00000000000000000 -1.00000000000000000 
1 2.25555555557353671 0.00000000000000000 0.00000000000000000 -1.00000000000000000 
1 1.26875000001798099 0.00000000000000000 0.00000000000000000 -1.00000000000000000 
1 0.00000000000000000 0.00000000000000000 1.00000000000000000 0.00000000000000000 
1 0.00000000000000000 -5.50000000000000000 1.00000000000000000 0.00000000000000000 
1 -5.07499999999111484 -5.07499999999680629 1.00000000000000000 -0.00000000000041828 
1 -7.65000000001798064 -0.00000000000000000 1.00000000000000000 0.00000000000000000 
1 0.00000000000000000 0.00000000000000000 1.00000000000000000 0.00000000000000000 
1 0.00000000000000000 -5.50000000000000000 1.00000000000000000 0.00000000000000000 
1 5.07500000002686580 -5.07500000000105178 -0.00000000000451238 1.00000000000000000 
1 -2.81944444441757858 -5.07500000000105178 -0.00000000000451238 1.00000000000000000 
1 -3.80624999997313429 -5.07500000000105178 -0.00000000000451238 1.00000000000000000 
1 0.00000000000000000 0.00000000000000000 0.00000000000000000 -1.00000000000000000 
1 0.00000000000000000 0.00000000000000000 0.00000000000000000 -1.00000000000000000 
1 0.00000000000000000 0.00000000000000000 0.00000000000000000 -1.00000000000000000 
1 2.50000000000000000 0.00000000000000000 0.00000000000000000 -1.00000000000000000 
1 0.00000000000000000 0.00000000000000000 1.00000000000000000 0.00000000000000000 
1 0.00000000000000000 -10.00000000000000000 1.00000000000000000 0.00000000000000000 
1 -5.07500000002125162 5.07500000000118501 0.00000000000274127 -1.00000000000000000 
1 0.00000000000000000 0.00000000000000000 1.00000000000000000 0.00000000000000000 
1 0.00000000000000000 -10.00000000000000000 1.00000000000000000 0.00000000000000000 
1 -5.07500000002125162 5.07500000000118501 0.00000000000274127 -1.00000000000000000 
1 0.00000000000000000 0.00000000000000000 1.00000000000000000 0.00000000000000000 
1 0.00000000000000000 -115.50000000000000000 1.00000000000000000 0.00000000000000000 
1 -5.07500000002125162 5.07500000000118501 0.00000000000274127 -1.00000000000000000 
1 0.00000000000000000 0.00000000000000000 1.00000000000000000 0.00000000000000000 
1 0.00000000000000000 -115.50000000000000000 1.00000000000000000 0.00000000000000000 
1 -5.07500000002125162 5.07500000000118501 0.00000000000274127 -1.00000000000000000 
1 0.00000000000000000 0.00000000000000000 1.00000000000000000 0.00000000000000000 
1 0.00000000000000000 -5.50000000000000000 1.00000000000000000 0.00000000000000000 
1 -5.07500000002125162 5.07500000000118501 0.00000000000274127 -1.00000000000000000 
1 0.00000000000000000 0.00000000000000000 1.00000000000000000 0.00000000000000000 
1 0.00000000000000000 -5.50000000000000000 1.00000000000000000 0.00000000000000000 
1 -5.07500000002125162 5.07500000000118501 0.00000000000274127 -1.00000000000000000 
1 0.00000000000000000 0.00000000000000000 1.00000000000000000 0.00000000000000000 
1 0.00000000000000000 -10.00000000000000000 1.00000000000000000 0.00000000000000000 
1 -5.07500000001439844 2.57500000000118501 0.70710678118557835 0.70710678118751669 
1 -5.07500000001208385 2.57500000000342322 0.70710678118557835 0.70710678118751669 
1 0.00000000000000000 0.00000000000000000 1.00000000000000000 0.00000000000000000 
1 0.00000000000000000 -10.00000000000000000 1.00000000000000000 0.00000000000000000 
1 -5.07500000001439844 2.57500000000118501 0.70710678118557835 0.70710678118751669 
1 -5.07500000001208385 2.57500000000342322 0.70710678118557835 0.70710678118751669 
1 0.00000000000000000 0.00000000000000000 1.00000000000000000 0.00000000000000000 
1 0.00000000000000000 -115.50000000000000000 1.00000000000000000 0.00000000000000000 
1 -5.07500000001439844 2.57500000000118501 0.70710678118557835 0.70710678118751669 
1 -5.07500000001208385 2.57500000000342322 0.70710678118557835 0.70710678118751669 
1 0.00000000000000000 0.00000000000000000 1.00000000000000000 0.00000000000000000 
1 0.00000000000000000 -115.50000000000000000 1.00000000000000000 0.00000000000000000 
1 -5.07500000001439844 2.57500000000118501 0.70710678118557835 0.70710678118751669 
1 -5.07500000001208385 2.57500000000342322 0.70710678118557835 0.70710678118751669 
1 0.00000000000000000 0.00000000000000000 1.00000000000000000 0.00000000000000000 
1 0.00000000000000000 -5.50000000000000000 1.00000000000000000 0.00000000000000000 
1 -5.07500000001439844 2.57500000000118501 0.70710678118557835 0.70710678118751669 
1 -5.07500000001208385 2.57500000000342322 0.70710678118557835 0.70710678118751669 
1 0.00000000000000000 0.00000000000000000 1.00000000000000000 0.00000000000000000 
1 0.00000000000000000 -5.50000000000000000 1.00000000000000000 0.00000000000000000 
1 -5.07500000001439844 2.57500000000118501 0.70710678118557835 0.70710678118751669 
1 -5.07500000001208385 2.57500000000342322 0.70710678118557835 0.70710678118751669 
1 0.00000000000000000 0.00000000000000000 1.00000000000000000 0.00000000000000000 
1 0.00000000000000000 -10.00000000000000000 1.00000000000000000 0.00000000000000000 
1 2.57500000002455121 -5.07500000000224372 0.70710678118510017 0.70710678118799486 
1 2.57500000002686535 -5.07500000000000551 0.70710678118510017 0.70710678118799486 
1 0.00000000000000000 0.00000000000000000 1.00000000000000000 0.00000000000000000 
1 0.00000000000000000 -10.00000000000000000 1.00000000000000000 0.00000000000000000 
1 2.57500000002455121 -5.07500000000224372 0.70710678118510017 0.70710678118799486 
1 2.57500000002686535 -5.07500000000000551 0.70710678118510017 0.70710678118799486 
1 0.00000000000000000 0.00000000000000000 1.00000000000000000 0.00000000000000000 
1 0.00000000000000000 -115.50000000000000000 1.00000000000000000 0.00000000000000000 
1 2.57500000002455121 -5.07500000000224372 0.70710678118510017 0.70710678118799486 
1 2.57500000002686535 -5.07500000000000551 0.70710678118510017 0.70710678118799486 
1 0.00000000000000000 0.00000000000000000 1.00000000000000000 0.00000000000000000 
1 0.00000000000000000 -115.50000000000000000 1.00000000000000000 0.00000000000000000 
1 2.57500000002455121 -5.07500000000224372 0.70710678118510017 0.70710678118799486 
1 2.57500000002686535 -5.07500000000000551 0.70710678118510017 0.70710678118799486 
1 0.00000000000000000 0.00000000000000000 1.00000000000000000 0.00000000000000000 
1 0.00000000000000000 -5.50000000000000000 1.00000000000000000 0.00000000000000000 
1 2.57500000002455121 -5.07500000000224372 0.70710678118510017 0.70710678118799486 
1 2.57500000002686535 -5.07500000000000551 0.70710678118510017 0.70710678118799486 
1 0.00000000000000000 0.00000000000000000 1.00000000000000000 0.00000000000000000 
1 0.00000000000000000 -5.50000000000000000 1.00000000000000000 0.00000000000000000 
1 2.57500000002455121 -5.07500000000224372 0.70710678118510017 0.70710678118799486 
1 2.57500000002686535 -5.07500000000000551 0.70710678118510017 0.70710678118799486 
1 0.00000000000000000 0.00000000000000000 1.00000000000000000 0.00000000000000000 
1 -2.81944444441757858 -5.07500000000105178 -0.00000000000451238 1.00000000000000000 
1 -3.80624999997313429 -5.07500000000105178 -0.00000000000451238 1.00000000000000000 
1 3.53553390592789185 0.00000000000000000 0.00000000000000000 -1.00000000000000000 
1 2.50000000000000000 0.00000000000000000 0.00000000000000000 -1.00000000000000000 
1 0.00000000000000000 0.00000000000000000 1.00000000000000000 0.00000000000000000 
1 0.00000000000000000 -10.00000000000000000 1.00000000000000000 0.00000000000000000 
1 -5.07500000002125162 5.07500000000118501 1.00000000000000000 -0.00000000000000000 
1 0.00000000000000000 0.00000000000000000 1.00000000000000000 0.00000000000000000 
1 0.00000000000000000 -10.00000000000000000 1.00000000000000000 0.00000000000000000 
1 -5.07500000002125162 5.07500000000118501 1.00000000000000000 -0.00000000000000000 
1 0.00000000000000000 0.00000000000000000 1.00000000000000000 0.00000000000000000 
1 0.00000000000000000 -115.50000000000000000 1.00000000000000000 0.00000000000000000 
1 -5.07500000002125162 5.07500000000118501 1.00000000000000000 -0.00000000000000000 
1 0.00000000000000000 0.00000000000000000 1.00000000000000000 0.00000000000000000 
1 0.00000000000000000 -115.50000000000000000 1.00000000000000000 0.00000000000000000 
1 -5.07500000002125162 5.07500000000118501 1.00000000000000000 -0.00000000000000000 
1 0.00000000000000000 0.00000000000000000 1.00000000000000000 0.00000000000000000 
1 0.00000000000000000 -5.50000000000000000 1.00000000000000000 0.00000000000000000 
1 -5.07500000002125162 5.07500000000118501 1.00000000000000000 -0.00000000000000000 
1 0.00000000000000000 0.00000000000000000 1.00000000000000000 0.00000000000000000 
1 0.00000000000000000 -5.50000000000000000 1.00000000000000000 0.00000000000000000 
1 -5.07500000002125162 5.07500000000118501 1.00000000000000000 -0.00000000000000000 
1 0.00000000000000000 0.00000000000000000 0.00000000000000000 -1.00000000000000000 
1 0.00000000000000000 0.00000000000000000 0.00000000000000000 -1.00000000000000000 
1 2.50000000000000000 0.00000000000000000 0.00000000000000000 -1.00000000000000000 
1 0.00000000000000000 0.00000000000000000 0.00000000000000000 -1.00000000000000000 
1 0.00000000000000000 0.00000000000000000 1.00000000000000000 0.00000000000000000 
1 0.00000000000000000 -10.00000000000000000 1.00000000000000000 0.00000000000000000 
1 2.57500000002455121 -5.07500000000224372 1.00000000000000000 -0.00000000000041851 
1 0.00000000000000000 0.00000000000000000 1.00000000000000000 0.00000000000000000 
1 0.00000000000000000 -10.00000000000000000 1.00000000000000000 0.00000000000000000 
1 2.57500000002455121 -5.07500000000224372 1.00000000000000000 -0.00000000000041851 
1 0.00000000000000000 0.00000000000000000 1.00000000000000000 0.00000000000000000 
1 0.00000000000000000 -115.50000000000000000 1.00000000000000000 0.00000000000000000 
1 2.57500000002455121 -5.07500000000224372 1.00000000000000000 -0.00000000000041851 
1 0.00000000000000000 0.00000000000000000 1.00000000000000000 0.00000000000000000 
1 0.00000000000000000 -115.50000000000000000 1.00000000000000000 0.00000000000000000 
1 2.57500000002455121 -5.07500000000224372 1.00000000000000000 -0.00000000000041851 
1 0.00000000000000000 0.00000000000000000 1.00000000000000000 0.00000000000000000 
1 0.00000000000000000 -5.50000000000000000 1.00000000000000000 0.00000000000000000 
1 2.57500000002455121 -5.07500000000224372 1.00000000000000000 -0.00000000000041851 
1 0.00000000000000000 0.00000000000000000 1.00000000000000000 0.00000000000000000 
1 0.00000000000000000 -5.50000000000000000 1.00000000000000000 0.00000000000000000 
1 2.57500000002455121 -5.07500000000224372 1.00000000000000000 -0.00000000000041851 
1 2.50000000000000000 0.00000000000000000 0.00000000000000000 -1.00000000000000000 
1 3.53553390592402117 0.00000000000000000 0.00000000000000000 -1.00000000000000000 
1 0.00000000000000000 0.00000000000000000 1.00000000000000000 0.00000000000000000 
1 0.00000000000000000 -10.00000000000000000 1.00000000000000000 0.00000000000000000 
1 5.07500000002455121 -5.07500000000328999 -0.00000000000451230 1.00000000000000000 
1 0.00000000000000000 0.00000000000000000 1.00000000000000000 0.00000000000000000 
1 0.00000000000000000 -10.00000000000000000 1.00000000000000000 0.00000000000000000 
1 5.07500000002455121 -5.07500000000328999 -0.00000000000451230 1.00000000000000000 
1 0.00000000000000000 0.00000000000000000 1.00000000000000000 0.00000000000000000 
1 0.00000000000000000 -115.50000000000000000 1.00000000000000000 0.00000000000000000 
1 5.07500000002455121 -5.07500000000328999 -0.00000000000451230 1.00000000000000000 
1 0.00000000000000000 0.00000000000000000 1.00000000000000000 0.00000000000000000 
1 0.00000000000000000 -115.50000000000000000 1.00000000000000000 0.00000000000000000 
1 5.07500000002455121 -5.07500000000328999 -0.00000000000451230 1.00000000000000000 
1 0.00000000000000000 0.00000000000000000 1.00000000000000000 0.00000000000000000 
1 0.00000000000000000 -5.50000000000000000 1.00000000000000000 0.00000000000000000 
1 5.07500000002455121 -5.07500000000328999 -0.00000000000451230 1.00000000000000000 
1 0.00000000000000000 0.00000000000000000 1.00000000000000000 0.00000000000000000 
1 0.00000000000000000 -5.50000000000000000 1.00000000000000000 0.00000000000000000 
1 5.07500000002455121 -5.07500000000328999 -0.00000000000451230 1.00000000000000000 
Curves 20
1 -5.07500000000599183 5.07500000000597229 0.00000000000000000 0.00000000000000000 0.00000000000000000 1.00000000000000000 
1 -5.07499999997816964 -5.07499999999425722 0.00000000000000000 0.00000000000000000 0.00000000000000000 1.00000000000000000 
1 -5.07500000000599183 5.07500000000597229 0.00000000000000000 0.00000000000274110 -1.00000000000000000 0.00000000000000000 
1 5.07499999999401030 5.07500000000597229 0.00000000000000000 0.00000000000000000 0.00000000000000000 1.00000000000000000 
1 5.07499999999401030 5.07500000000597229 0.00000000000000000 -1.00000000000000000 0.00000000000000000 0.00000000000000000 
1 5.07500000003981100 -5.07499999999850271 0.00000000000000000 0.00000000000000000 0.00000000000000000 1.00000000000000000 
1 -5.07499999997816964 -5.07499999999425722 0.00000000000000000 1.00000000000000000 -0.00000000000041828 0.00000000000000000 
1 5.07500000003981100 -5.07499999999850271 0.00000000000000000 -0.00000000000451238 1.00000000000000000 0.00000000000000000 
1 -5.07500000000599183 5.07500000000597229 5.50000000000000000 0.00000000000000000 0.00000000000000000 1.00000000000000000 
1 -5.07499999999913864 2.57500000000597229 5.50000000000000000 0.00000000000000000 0.00000000000000000 1.00000000000000000 
1 -5.07500000000599183 5.07500000000597229 0.00000000000000000 0.00000000000274127 -1.00000000000000000 0.00000000000000000 
1 -5.07499999999913864 2.57500000000597229 0.00000000000000000 0.70710678118557835 0.70710678118751669 0.00000000000000000 
1 2.57500000003981100 -5.07499999999745643 0.00000000000000000 0.70710678118510017 0.70710678118799486 0.00000000000000000 
1 -2.57500000000599183 5.07500000000597229 5.50000000000000000 0.00000000000000000 0.00000000000000000 1.00000000000000000 
1 -5.07500000000599183 5.07500000000597229 0.00000000000000000 1.00000000000000000 0.00000000000000000 0.00000000000000000 
1 2.57500000003981100 -5.07499999999745643 5.50000000000000000 0.00000000000000000 0.00000000000000000 1.00000000000000000 
1 5.07500000003981100 -5.07499999999850271 5.50000000000000000 0.00000000000000000 0.00000000000000000 1.00000000000000000 
1 2.57500000003981100 -5.07499999999745643 0.00000000000000000 1.00000000000000000 -0.00000000000041851 0.00000000000000000 
1 5.07500000002853024 -2.57499999999850271 5.50000000000000000 0.00000000000000000 0.00000000000000000 1.00000000000000000 
1 5.07500000003981100 -5.07499999999850271 0.00000000000000000 -0.00000000000451230 1.00000000000000000 0.00000000000000000 
Polygon3D 0
PolygonOnTriangulations 0
Surfaces 61
1 -5.07500000000599183 5.07500000000597229 0.00000000000000000 1.00000000000000000 0.00000000000274110 -0.00000000000000000 0.00000000000274110 -1.00000000000000000 0.00000000000000000 0.00000000000000000 -0.00000000000000000 -1.00000000000000000 
1 5.07499999999401030 5.07500000000597229 0.00000000000000000 0.00000000000000000 -1.00000000000000000 0.00000000000000000 -1.00000000000000000 0.00000000000000000 0.00000000000000000 -0.00000000000000000 -0.00000000000000000 -1.00000000000000000 
1 -5.07499999997816964 -5.07499999999425722 0.00000000000000000 0.00000000000041828 1.00000000000000000 -0.00000000000000000 1.00000000000000000 -0.00000000000041828 0.00000000000000000 0.00000000000000000 -0.00000000000000000 -1.00000000000000000 
1 0.00000000001294562 0.00000000000254885 0.00000000000000000 0.00000000000000000 0.00000000000000000 1.00000000000000000 1.00000000000000000 0.00000000000000000 -0.00000000000000000 -0.00000000000000000 1.00000000000000000 0.00000000000000000 
1 5.07500000003981100 -5.07499999999850271 0.00000000000000000 -1.00000000000000000 -0.00000000000451238 0.00000000000000000 -0.00000000000451238 1.00000000000000000 0.00000000000000000 -0.00000000000000000 0.00000000000000000 -1.00000000000000000 
1 5.07499999999401030 5.07500000000597229 0.00000000000000000 0.00000000000000000 -1.00000000000000000 0.00000000000000000 -1.00000000000000000 0.00000000000000000 0.00000000000000000 -0.00000000000000000 -0.00000000000000000 -1.00000000000000000 
1 5.07499999999401030 5.07500000000597229 0.00000000000000000 0.00000000000000000 -1.00000000000000000 0.00000000000000000 -1.00000000000000000 0.00000000000000000 0.00000000000000000 -0.00000000000000000 -0.00000000000000000 -1.00000000000000000 
1 -5.07499999997816964 -5.07499999999425722 0.00000000000000000 0.00000000000041828 1.00000000000000000 -0.00000000000000000 1.00000000000000000 -0.00000000000041828 0.00000000000000000 0.00000000000000000 -0.00000000000000000 -1.00000000000000000 
1 -5.07499999997816964 -5.07499999999425722 0.00000000000000000 0.00000000000041828 1.00000000000000000 -0.00000000000000000 1.00000000000000000 -0.00000000000041828 0.00000000000000000 0.00000000000000000 -0.00000000000000000 -1.00000000000000000 
1 2.57500000003981100 -5.07499999999745643 5.50000000000000000 0.00000000000041851 1.00000000000000000 -0.00000000000000000 1.00000000000000000 -0.00000000000041851 0.00000000000000000 0.00000000000000000 -0.00000000000000000 -1.00000000000000000 
1 0.00000000001294562 0.00000000000254885 0.00000000000000000 0.00000000000000000 0.00000000000000000 1.00000000000000000 1.00000000000000000 0.00000000000000000 -0.00000000000000000 -0.00000000000000000 1.00000000000000000 0.00000000000000000 
1 0.00000000001294562 0.00000000000254885 0.00000000000000000 0.00000000000000000 0.00000000000000000 1.00000000000000000 1.00000000000000000 0.00000000000000000 -0.00000000000000000 -0.00000000000000000 1.00000000000000000 0.00000000000000000 
1 -5.07500000000599183 5.07500000000597229 5.50000000000000000 1.00000000000000000 0.00000000000274127 -0.00000000000000000 0.00000000000274127 -1.00000000000000000 0.00000000000000000 0.00000000000000000 -0.00000000000000000 -1.00000000000000000 
1 -5.07500000000599183 5.07500000000597229 5.50000000000000000 0.00000000000000000 1.00000000000000000 0.00000000000000000 1.00000000000000000 0.00000000000000000 0.00000000000000000 0.00000000000000000 0.00000000000000000 -1.00000000000000000 
1 -5.07499999999913864 2.57500000000597229 5.50000000000000000 -0.70710678118751669 0.70710678118557835 0.00000000000000000 0.70710678118557835 0.70710678118751669 0.00000000000000000 0.00000000000000000 0.00000000000000000 -1.00000000000000000 
1 -5.07500000000599183 5.07500000000597229 5.50000000000000000 1.00000000000000000 0.00000000000274127 -0.00000000000000000 0.00000000000274127 -1.00000000000000000 0.00000000000000000 0.00000000000000000 -0.00000000000000000 -1.00000000000000000 
1 0.00000000001525969 0.00000000000478738 5.50000000000000178 -0.00000000000000000 -0.00000000000000000 1.00000000000000000 1.00000000000000000 0.00000000000000000 0.00000000000000000 -0.00000000000000000 1.00000000000000000 0.00000000000000000 
1 -5.07500000000599183 5.07500000000597229 5.50000000000000000 1.00000000000000000 0.00000000000274127 -0.00000000000000000 0.00000000000274127 -1.00000000000000000 0.00000000000000000 0.00000000000000000 -0.00000000000000000 -1.00000000000000000 
1 0.00000000001525969 0.00000000000478738 5.50000000000000178 -0.00000000000000000 -0.00000000000000000 1.00000000000000000 1.00000000000000000 0.00000000000000000 0.00000000000000000 -0.00000000000000000 1.00000000000000000 0.00000000000000000 
1 -5.07500000000599183 5.07500000000597229 5.50000000000000000 1.00000000000000000 0.00000000000274127 -0.00000000000000000 0.00000000000274127 -1.00000000000000000 0.00000000000000000 0.00000000000000000 -0.00000000000000000 -1.00000000000000000 
1 0.00000000001525969 0.00000000000478738 5.50000000000000178 -0.00000000000000000 -0.00000000000000000 1.00000000000000000 1.00000000000000000 0.00000000000000000 0.00000000000000000 -0.00000000000000000 1.00000000000000000 0.00000000000000000 
1 -5.07500000000599183 5.07500000000597229 5.50000000000000000 1.00000000000000000 0.00000000000274127 -0.00000000000000000 0.00000000000274127 -1.00000000000000000 0.00000000000000000 0.00000000000000000 -0.00000000000000000 -1.00000000000000000 
1 0.00000000001525969 0.00000000000478738 5.50000000000000178 -0.00000000000000000 -0.00000000000000000 1.00000000000000000 1.00000000000000000 0.00000000000000000 0.00000000000000000 -0.00000000000000000 1.00000000000000000 0.00000000000000000 
1 -5.07500000000599183 5.07500000000597229 5.50000000000000000 1.00000000000000000 0.00000000000274127 -0.00000000000000000 0.00000000000274127 -1.00000000000000000 0.00000000000000000 0.00000000000000000 -0.00000000000000000 -1.00000000000000000 
1 0.00000000001525969 0.00000000000478738 5.50000000000000178 -0.00000000000000000 -0.00000000000000000 1.00000000000000000 1.00000000000000000 0.00000000000000000 0.00000000000000000 -0.00000000000000000 1.00000000000000000 0.00000000000000000 
1 0.00000000001525969 0.00000000000478738 5.50000000000000178 -0.00000000000000000 -0.00000000000000000 1.00000000000000000 1.00000000000000000 0.00000000000000000 0.00000000000000000 -0.00000000000000000 1.00000000000000000 0.00000000000000000 
1 -5.07499999999913864 2.57500000000597229 5.50000000000000000 -0.70710678118751669 0.70710678118557835 0.00000000000000000 0.70710678118557835 0.70710678118751669 0.00000000000000000 0.00000000000000000 0.00000000000000000 -1.00000000000000000 
1 -5.07499999999913864 2.57500000000597229 5.50000000000000000 -0.70710678118751669 0.70710678118557835 0.00000000000000000 0.70710678118557835 0.70710678118751669 0.00000000000000000 0.00000000000000000 0.00000000000000000 -1.00000000000000000 
1 -5.07499999999913864 2.57500000000597229 5.50000000000000000 -0.70710678118751669 0.70710678118557835 0.00000000000000000 0.70710678118557835 0.70710678118751669 0.00000000000000000 0.00000000000000000 0.00000000000000000 -1.00000000000000000 
1 -5.07499999999913864 2.57500000000597229 5.50000000000000000 -0.70710678118751669 0.70710678118557835 0.00000000000000000 0.70710678118557835 0.70710678118751669 0.00000000000000000 0.00000000000000000 0.00000000000000000 -1.00000000000000000 
1 -5.07499999999913864 2.57500000000597229 5.50000000000000000 -0.70710678118751669 0.70710678118557835 0.00000000000000000 0.70710678118557835 0.70710678118751669 0.00000000000000000 0.00000000000000000 0.00000000000000000 -1.00000000000000000 
1 2.57500000003981100 -5.07499999999745643 5.50000000000000000 -0.70710678118799486 0.70710678118510017 0.00000000000000000 0.70710678118510017 0.70710678118799486 0.00000000000000000 0.00000000000000000 0.00000000000000000 -1.00000000000000000 
1 0.00000000001525969 0.00000000000478738 5.50000000000000178 -0.00000000000000000 -0.00000000000000000 1.00000000000000000 1.00000000000000000 0.00000000000000000 0.00000000000000000 -0.00000000000000000 1.00000000000000000 0.00000000000000000 
1 2.57500000003981100 -5.07499999999745643 5.50000000000000000 -0.70710678118799486 0.70710678118510017 0.00000000000000000 0.70710678118510017 0.70710678118799486 0.00000000000000000 0.00000000000000000 0.00000000000000000 -1.00000000000000000 
1 0.00000000001525969 0.00000000000478738 5.50000000000000178 -0.00000000000000000 -0.00000000000000000 1.00000000000000000 1.00000000000000000 0.00000000000000000 0.00000000000000000 -0.00000000000000000 1.00000000000000000 0.00000000000000000 
1 2.57500000003981100 -5.07499999999745643 5.50000000000000000 -0.70710678118799486 0.70710678118510017 0.00000000000000000 0.70710678118510017 0.70710678118799486 0.00000000000000000 0.00000000000000000 0.00000000000000000 -1.00000000000000000 
1 0.00000000001525969 0.00000000000478738 5.50000000000000178 -0.00000000000000000 -0.00000000000000000 1.00000000000000000 1.00000000000000000 0.00000000000000000 0.00000000000000000 -0.00000000000000000 1.00000000000000000 0.00000000000000000 
1 2.57500000003981100 -5.07499999999745643 5.50000000000000000 -0.70710678118799486 0.70710678118510017 0.00000000000000000 0.70710678118510017 0.70710678118799486 0.00000000000000000 0.00000000000000000 0.00000000000000000 -1.00000000000000000 
1 0.00000000001525969 0.00000000000478738 5.50000000000000178 -0.00000000000000000 -0.00000000000000000 1.00000000000000000 1.00000000000000000 0.00000000000000000 0.00000000000000000 -0.00000000000000000 1.00000000000000000 0.00000000000000000 
1 2.57500000003981100 -5.07499999999745643 5.50000000000000000 -0.70710678118799486 0.70710678118510017 0.00000000000000000 0.70710678118510017 0.70710678118799486 0.00000000000000000 0.00000000000000000 0.00000000000000000 -1.00000000000000000 
1 0.00000000001525969 0.00000000000478738 5.50000000000000178 -0.00000000000000000 -0.00000000000000000 1.00000000000000000 1.00000000000000000 0.00000000000000000 0.00000000000000000 -0.00000000000000000 1.00000000000000000 0.00000000000000000 
1 2.57500000003981100 -5.07499999999745643 5.50000000000000000 -0.70710678118799486 0.70710678118510017 0.00000000000000000 0.70710678118510017 0.70710678118799486 0.00000000000000000 0.00000000000000000 0.00000000000000000 -1.00000000000000000 
1 0.00000000001525969 0.00000000000478738 5.50000000000000178 -0.00000000000000000 -0.00000000000000000 1.00000000000000000 1.00000000000000000 0.00000000000000000 0.00000000000000000 -0.00000000000000000 1.00000000000000000 0.00000000000000000 
1 5.07500000003981100 -5.07499999999850271 5.50000000000000000 -1.00000000000000000 -0.00000000000451230 0.00000000000000000 -0.00000000000451230 1.00000000000000000 0.00000000000000000 -0.00000000000000000 0.00000000000000000 -1.00000000000000000 
1 0.00000000001294562 0.00000000000254885 0.00000000000000000 0.00000000000000000 0.00000000000000000 1.00000000000000000 1.00000000000000000 0.00000000000000000 -0.00000000000000000 -0.00000000000000000 1.00000000000000000 0.00000000000000000 
1 0.00000000001294562 0.00000000000254885 0.00000000000000000 0.00000000000000000 0.00000000000000000 1.00000000000000000 1.00000000000000000 0.00000000000000000 -0.00000000000000000 -0.00000000000000000 1.00000000000000000 0.00000000000000000 
1 -5.07500000000599183 5.07500000000597229 5.50000000000000000 0.00000000000000000 1.00000000000000000 0.00000000000000000 1.00000000000000000 0.00000000000000000 0.00000000000000000 0.00000000000000000 0.00000000000000000 -1.00000000000000000 
1 -5.07500000000599183 5.07500000000597229 5.50000000000000000 0.00000000000000000 1.00000000000000000 0.00000000000000000 1.00000000000000000 0.00000000000000000 0.00000000000000000 0.00000000000000000 0.00000000000000000 -1.00000000000000000 
1 -5.07500000000599183 5.07500000000597229 5.50000000000000000 0.00000000000000000 1.00000000000000000 0.00000000000000000 1.00000000000000000 0.00000000000000000 0.00000000000000000 0.00000000000000000 0.00000000000000000 -1.00000000000000000 
1 -5.07500000000599183 5.07500000000597229 5.50000000000000000 0.00000000000000000 1.00000000000000000 0.00000000000000000 1.00000000000000000 0.00000000000000000 0.00000000000000000 0.00000000000000000 0.00000000000000000 -1.00000000000000000 
1 -5.07500000000599183 5.07500000000597229 5.50000000000000000 0.00000000000000000 1.00000000000000000 0.00000000000000000 1.00000000000000000 0.00000000000000000 0.00000000000000000 0.00000000000000000 0.00000000000000000 -1.00000000000000000 
1 2.57500000003981100 -5.07499999999745643 5.50000000000000000 0.00000000000041851 1.00000000000000000 -0.00000000000000000 1.00000000000000000 -0.00000000000041851 0.00000000000000000 0.00000000000000000 -0.00000000000000000 -1.00000000000000000 
1 2.57500000003981100 -5.07499999999745643 5.50000000000000000 0.00000000000041851 1.00000000000000000 -0.00000000000000000 1.00000000000000000 -0.00000000000041851 0.00000000000000000 0.00000000000000000 -0.00000000000000000 -1.00000000000000000 
1 2.57500000003981100 -5.07499999999745643 5.50000000000000000 0.00000000000041851 1.00000000000000000 -0.00000000000000000 1.00000000000000000 -0.00000000000041851 0.00000000000000000 0.00000000000000000 -0.00000000000000000 -1.00000000000000000 
1 2.57500000003981100 -5.07499999999745643 5.50000000000000000 0.00000000000041851 1.00000000000000000 -0.00000000000000000 1.00000000000000000 -0.00000000000041851 0.00000000000000000 0.00000000000000000 -0.00000000000000000 -1.00000000000000000 
1 2.57500000003981100 -5.07499999999745643 5.50000000000000000 0.00000000000041851 1.00000000000000000 -0.00000000000000000 1.00000000000000000 -0.00000000000041851 0.00000000000000000 0.00000000000000000 -0.00000000000000000 -1.00000000000000000 
1 5.07500000003981100 -5.07499999999850271 5.50000000000000000 -1.00000000000000000 -0.00000000000451230 0.00000000000000000 -0.00000000000451230 1.00000000000000000 0.00000000000000000 -0.00000000000000000 0.00000000000000000 -1.00000000000000000 
1 5.07500000003981100 -5.07499999999850271 5.50000000000000000 -1.00000000000000000 -0.00000000000451230 0.00000000000000000 -0.00000000000451230 1.00000000000000000 0.00000000000000000 -0.00000000000000000 0.00000000000000000 -1.00000000000000000 
1 5.07500000003981100 -5.07499999999850271 5.50000000000000000 -1.00000000000000000 -0.00000000000451230 0.00000000000000000 -0.00000000000451230 1.00000000000000000 0.00000000000000000 -0.00000000000000000 0.00000000000000000 -1.00000000000000000 
1 5.07500000003981100 -5.07499999999850271 5.50000000000000000 -1.00000000000000000 -0.00000000000451230 0.00000000000000000 -0.00000000000451230 1.00000000000000000 0.00000000000000000 -0.00000000000000000 0.00000000000000000 -1.00000000000000000 
1 5.07500000003981100 -5.07499999999850271 5.50000000000000000 -1.00000000000000000 -0.00000000000451230 0.00000000000000000 -0.00000000000451230 1.00000000000000000 0.00000000000000000 -0.00000000000000000 0.00000000000000000 -1.00000000000000000 
Triangulations 0

TShapes 70
Ve
0.000000100000000
-5.075000000005992 5.075000000005972 0.000000000000000
0 0

0101101
*
Ve
0.000000100000000
-5.075000000005992 5.075000000005972 5.500000000000000
0 0

0101101
*
Ed
 0.000000100000000 1 1 0
1  1 0 0.000000000000000 5.500000000000000
2  1 1 0 0.000000000000000 5.500000000000000
2  2 2 0 0.000000000000000 5.500000000000000
0

0101000
+70 8 -69 9 *
Ve
0.000000100000000
-5.074999999978170 -5.074999999994257 0.000000000000000
0 0

0101101
*
Ed
 0.000000100000000 1 1 0
1  2 0 0.000000000000000 5.500000000000000
2  3 1 0 0.000000000000000 5.500000000000000
2  4 3 0 0.000000000000000 5.500000000000000
0

0101000
+67 8 -67 11 *
Ed
 0.000000100000000 1 1 0
1  3 0 0.000000000000000 10.150000000000230
2  5 1 13 0.000000000000000 10.150000000000230
2  6 1 14 0.000000000000000 10.150000000000230
2  7 4 15 0.000000000000000 10.150000000000230
0

0101000
+70 0 -67 0 *
Ve
0.000000100000000
-5.074999999999139 2.575000000005972 0.000000000000000
0 0

0101101
*
Ed
 0.000000100000000 1 1 0
1  3 0 0.000000000000000 2.500000000000000
2  5 1 13 0.000000000000000 2.500000000000000
2  6 1 14 0.000000000000000 2.500000000000000
2  7 4 15 0.000000000000000 2.500000000000000
0

0101000
+69 17 -64 20 *
Ed
 0.000000100000000 1 1 0
1  3 0 2.500000000000000 10.150000000000230
2  5 1 13 2.500000000000000 10.150000000000230
2  6 1 14 2.500000000000000 10.150000000000230
2  7 4 15 2.500000000000000 10.150000000000230
0

0101000
+64 20 -67 0 *
Wi

0101100
+68 4 -66 4 -65 12 +63 16 +62 16 *
Fa
0  0.000000100000000 1 4

0111000
+61 0 *
Ve
0.000000100000002
5.074999999994010 5.075000000005972 0.000000000000000
0 0

0101101
*
Ed
 0.000000100000000 1 1 0
1  4 0 0.000000000000000 5.500000000000000
2  8 5 0 0.000000000000000 5.500000000000000
2  9 2 0 0.000000000000000 5.500000000000000
2  10 6 24 0.000000000000000 5.500000000000000
2  11 7 28 0.000000000000000 5.500000000000000
0

0101000
+59 8 -59 11 *
Ed
 0.000000100000000 1 1 0
1  5 0 0.000000000000000 10.150000000000002
2  12 2 13 0.000000000000000 10.150000000000002
2  13 2 14 0.000000000000000 10.150000000000002
2  14 4 15 0.000000000000000 10.150000000000002
0

0101000
+59 0 -70 0 *
Ve
0.000000100000000
-2.575000000005992 5.075000000005972 0.000000000000000
0 0

0101101
*
Ed
 0.000000100000000 1 1 0
1  5 0 0.000000000000000 7.650000000000002
2  12 2 13 0.000000000000000 7.650000000000002
2  13 2 14 0.000000000000000 7.650000000000002
2  14 4 15 0.000000000000000 7.650000000000002
0

0101000
+59 0 -56 20 *
Ed
 0.000000100000000 1 1 0
1  5 0 7.650000000000002 10.150000000000002
2  12 2 13 7.650000000000002 10.150000000000002
2  13 2 14 7.650000000000002 10.150000000000002
2  14 4 15 7.650000000000002 10.150000000000002
0

0101000
+56 20 -69 17 *
Wi

0101100
+58 4 -68 4 -57 12 +55 16 +54 16 *
Fa
0  0.000000100000000 2 4

0111000
+53 0 *
Ve
0.000000100003715
5.075000000039811 -5.074999999998503 0.000000000000000
0 0

0101101
*
Ve
0.000000100003715
5.075000000039811 -5.074999999998503 5.500000000000000
0 0

0101101
*
Ed
 0.000000100003714 1 1 0
1  6 0 0.000000000000000 5.500000000000000
2  15 3 0 0.000000000000000 5.500000000000000
2  16 5 0 0.000000000000000 5.500000000000000
2  17 8 24 0.000000000000000 5.500000000000000
2  18 9 28 0.000000000000000 5.500000000000000
0

0101000
+51 8 -50 9 *
Ed
 0.000000100000000 1 1 0
1  7 0 0.000000000000000 10.150000000017981
2  19 3 13 0.000000000000000 10.150000000017981
2  20 3 14 0.000000000000000 10.150000000017981
2  21 4 15 0.000000000000000 10.150000000017981
0

0101000
+67 0 -51 0 *
Ve
0.000000100000001
2.575000000039811 -5.074999999997456 0.000000000000000
0 0

0101101
*
Ed
 0.000000100000000 1 1 0
1  7 0 0.000000000000000 7.650000000017981
2  19 3 13 0.000000000000000 7.650000000017981
2  20 3 14 0.000000000000000 7.650000000017981
2  21 4 15 0.000000000000000 7.650000000017981
0

0101000
+67 0 -47 20 *
Ed
 0.000000100000001 1 1 0
1  7 0 7.650000000017981 10.150000000017981
2  19 3 13 7.650000000017981 10.150000000017981
2  20 3 14 7.650000000017981 10.150000000017981
2  21 4 15 7.650000000017981 10.150000000017981
2  22 10 17 7.650000000017981 10.150000000017981
0

0101000
+47 20 -50 17 *
Wi

0101100
+66 4 -49 4 -48 12 +46 16 +45 16 *
Fa
0  0.000000100000000 3 4

0111000
+44 0 *
Ed
 0.000000100000000 1 1 0
1  8 0 0.000000000000000 10.150000000004475
2  23 5 13 0.000000000000000 10.150000000004475
2  24 5 14 0.000000000000000 10.150000000004475
2  25 4 15 0.000000000000000 10.150000000004475
2  26 11 31 0.000000000000000 10.150000000004475
2  27 12 32 0.000000000000000 10.150000000004475
0

0101000
+51 0 -59 0 *
Wi

0101100
+65 0 +48 0 +42 0 +57 0 *
Fa
0  0.000000100000000 4 0

0111000
+41 30 *
Ve
0.000000100000000
-5.075000000005992 5.075000000005972 0.000000000000000
0 0

0101101
*
Ed
 0.000000100000000 1 1 0
1  9 0 0.000000000000000 5.500000000000000
2  28 14 0 0.000000000000000 5.500000000000000
2  29 13 0 0.000000000000000 5.500000000000000
0

0101000
+69 0 -39 34 *
Ed
 0.000000100000000 1 1 0
1  10 0 0.000000000000000 5.500000000000000
2  30 15 0 0.000000000000000 5.500000000000000
2  31 13 0 0.000000000000000 5.500000000000000
0

0101000
+64 35 -64 34 *
Ed
 0.000000100000000 1 1 0
1  11 0 0.000000000000000 2.500000000000000
2  32 16 39 0.000000000000000 2.500000000000000
2  33 16 41 0.000000000000000 2.500000000000000
2  34 17 42 0.000000000000000 2.500000000000000
2  35 18 46 0.000000000000000 2.500000000000000
2  36 18 48 0.000000000000000 2.500000000000000
2  37 19 49 0.000000000000000 2.500000000000000
2  38 20 53 0.000000000000000 2.500000000000000
2  39 20 55 0.000000000000000 2.500000000000000
2  40 21 56 0.000000000000000 2.500000000000000
2  41 22 60 0.000000000000000 2.500000000000000
2  42 22 62 0.000000000000000 2.500000000000000
2  43 23 63 0.000000000000000 2.500000000000000
2  44 24 67 0.000000000000000 2.500000000000000
2  45 24 69 0.000000000000000 2.500000000000000
2  46 25 70 0.000000000000000 2.500000000000000
2  47 13 71 0.000000000000000 2.500000000000000
2  48 13 72 0.000000000000000 2.500000000000000
2  49 26 73 0.000000000000000 2.500000000000000
0

0101000
+39 0 -64 0 *
Wi

0101100
+38 0 -37 0 -63 16 +36 34 *
Fa
0  0.000000100000000 13 0

0111000
+35 0 *
Ed
 0.000000100000000 1 1 0
1  12 0 0.000000000000000 3.535533905927892
2  50 27 39 0.000000000000000 3.535533905927892
2  51 27 41 0.000000000000000 3.535533905927892
2  52 17 42 0.000000000000000 3.535533905927892
2  53 4 75 0.000000000000000 3.535533905927892
2  54 28 46 0.000000000000000 3.535533905927892
2  55 28 48 0.000000000000000 3.535533905927892
2  56 19 49 0.000000000000000 3.535533905927892
2  57 4 76 0.000000000000000 3.535533905927892
2  58 29 53 0.000000000000000 3.535533905927892
2  59 29 55 0.000000000000000 3.535533905927892
2  60 21 56 0.000000000000000 3.535533905927892
2  61 4 77 0.000000000000000 3.535533905927892
2  62 30 60 0.000000000000000 3.535533905927892
2  63 30 62 0.000000000000000 3.535533905927892
2  64 23 63 0.000000000000000 3.535533905927892
2  65 4 78 0.000000000000000 3.535533905927892
2  66 31 67 0.000000000000000 3.535533905927892
2  67 31 69 0.000000000000000 3.535533905927892
2  68 25 70 0.000000000000000 3.535533905927892
2  69 4 79 0.000000000000000 3.535533905927892
2  70 15 71 0.000000000000000 3.535533905927892
2  71 15 72 0.000000000000000 3.535533905927892
2  72 26 73 0.000000000000000 3.535533905927892
2  73 4 80 0.000000000000000 3.535533905927892
0

0101000
+64 0 -56 0 *
Ve
0.000000100017612
5.075000000028530 -2.574999999998503 0.000000000000000
0 0

0101101
*
Ed
 0.000000100000000 1 1 0
1  8 0 2.500000000000000 10.150000000004475
2  23 5 13 2.500000000000000 10.150000000004475
2  24 5 14 2.500000000000000 10.150000000004475
2  25 4 15 2.500000000000000 10.150000000004475
0

0101000
+32 20 -59 0 *
Ed
 0.000000100000000 1 1 0
1  13 0 0.000000000000000 3.535533905924021
2  74 32 39 0.000000000000000 3.535533905924021
2  75 32 41 0.000000000000000 3.535533905924021
2  76 33 42 0.000000000000000 3.535533905924021
2  77 4 75 0.000000000000000 3.535533905924021
2  78 34 46 0.000000000000000 3.535533905924021
2  79 34 48 0.000000000000000 3.535533905924021
2  80 35 49 0.000000000000000 3.535533905924021
2  81 4 76 0.000000000000000 3.535533905924021
2  82 36 53 0.000000000000000 3.535533905924021
2  83 36 55 0.000000000000000 3.535533905924021
2  84 37 56 0.000000000000000 3.535533905924021
2  85 4 77 0.000000000000000 3.535533905924021
2  86 38 60 0.000000000000000 3.535533905924021
2  87 38 62 0.000000000000000 3.535533905924021
2  88 39 63 0.000000000000000 3.535533905924021
2  89 4 78 0.000000000000000 3.535533905924021
2  90 40 67 0.000000000000000 3.535533905924021
2  91 40 69 0.000000000000000 3.535533905924021
2  92 41 70 0.000000000000000 3.535533905924021
2  93 4 79 0.000000000000000 3.535533905924021
2  94 42 71 0.000000000000000 3.535533905924021
2  95 42 72 0.000000000000000 3.535533905924021
2  96 43 73 0.000000000000000 3.535533905924021
2  97 4 80 0.000000000000000 3.535533905924021
0

0101000
+47 0 -32 0 *
Wi

0101100
-33 35 +55 16 +31 16 +30 35 +46 16 +62 16 *
Fa
0  0.000000100000000 4 74

0111000
+29 0 *
Ed
 0.000000100000001 1 1 0
1  8 0 0.000000000000000 2.500000000000000
2  23 5 13 0.000000000000000 2.500000000000000
2  24 5 14 0.000000000000000 2.500000000000000
2  25 4 15 0.000000000000000 2.500000000000000
2  98 44 17 0.000000000000000 2.500000000000000
2  99 45 81 0.000000000000000 2.500000000000000
2  100 46 82 0.000000000000000 2.500000000000000
0

0101000
+50 17 -32 20 *
Wi

0101100
+49 4 -58 4 -42 12 +27 16 +31 16 *
Fa
0  0.000000100000000 5 4

0111000
+26 0 *
Ed
 0.000000100000000 1 1 0
1  14 0 0.000000000000000 5.500000000000000
2  101 15 0 0.000000000000000 5.500000000000000
2  102 14 0 0.000000000000000 5.500000000000000
0

0101000
+56 35 -56 34 *
Ed
 0.000000100000000 1 1 0
1  15 0 0.000000000000000 2.500000000000000
2  103 47 39 0.000000000000000 2.500000000000000
2  104 47 41 0.000000000000000 2.500000000000000
2  105 17 42 0.000000000000000 2.500000000000000
2  106 48 46 0.000000000000000 2.500000000000000
2  107 48 48 0.000000000000000 2.500000000000000
2  108 19 49 0.000000000000000 2.500000000000000
2  109 49 53 0.000000000000000 2.500000000000000
2  110 49 55 0.000000000000000 2.500000000000000
2  111 21 56 0.000000000000000 2.500000000000000
2  112 50 60 0.000000000000000 2.500000000000000
2  113 50 62 0.000000000000000 2.500000000000000
2  114 23 63 0.000000000000000 2.500000000000000
2  115 51 67 0.000000000000000 2.500000000000000
2  116 51 69 0.000000000000000 2.500000000000000
2  117 25 70 0.000000000000000 2.500000000000000
2  118 14 71 0.000000000000000 2.500000000000000
2  119 14 72 0.000000000000000 2.500000000000000
2  120 26 73 0.000000000000000 2.500000000000000
0

0101000
+39 0 -56 0 *
Wi

0101100
+38 0 -24 0 +54 16 +23 34 *
Fa
0  0.000000100000000 14 0

0111000
+22 0 *
Ed
 0.000000100000001 1 1 0
1  16 0 0.000000000000000 5.500000000000000
2  121 10 0 0.000000000000000 5.500000000000000
2  122 42 0 0.000000000000000 5.500000000000000
0

0101000
+47 35 -47 34 *
Ve
0.000000100000000
5.075000000039811 -5.074999999998503 0.000000000000000
0 0

0101101
*
Ed
 0.000000100000000 1 1 0
1  17 0 0.000000000000000 5.500000000000000
2  123 10 0 0.000000000000000 5.500000000000000
2  124 44 0 0.000000000000000 5.500000000000000
0

0101000
+50 0 -19 34 *
Ed
 0.000000100000000 1 1 0
1  18 0 0.000000000000000 2.500000000000000
2  125 52 39 0.000000000000000 2.500000000000000
2  126 52 41 0.000000000000000 2.500000000000000
2  127 33 42 0.000000000000000 2.500000000000000
2  128 53 46 0.000000000000000 2.500000000000000
2  129 53 48 0.000000000000000 2.500000000000000
2  130 35 49 0.000000000000000 2.500000000000000
2  131 54 53 0.000000000000000 2.500000000000000
2  132 54 55 0.000000000000000 2.500000000000000
2  133 37 56 0.000000000000000 2.500000000000000
2  134 55 60 0.000000000000000 2.500000000000000
2  135 55 62 0.000000000000000 2.500000000000000
2  136 39 63 0.000000000000000 2.500000000000000
2  137 56 67 0.000000000000000 2.500000000000000
2  138 56 69 0.000000000000000 2.500000000000000
2  139 41 70 0.000000000000000 2.500000000000000
2  140 10 71 0.000000000000000 2.500000000000000
2  141 10 72 0.000000000000000 2.500000000000000
2  142 43 73 0.000000000000000 2.500000000000000
0

0101000
+47 0 -19 0 *
Wi

0101100
+20 0 -18 0 -45 16 +17 34 *
Fa
0  0.000000100000000 10 0

0111000
+16 0 *
Wi

0101100
+37 0 -24 0 -33 35 +33 34 *
Fa
0  0.000000100000000 15 0

0111000
+14 0 *
Wi

0101100
+33 0 -23 0 +36 0 *
Fa
0  0.000000100000000 26 0

0111000
+12 84 *
Ed
 0.000000100000001 1 1 0
1  19 0 0.000000000000000 5.500000000000000
2  143 44 0 0.000000000000000 5.500000000000000
2  144 42 0 0.000000000000000 5.500000000000000
0

0101000
+32 35 -32 34 *
Wi

0101100
+20 0 -10 0 -30 35 +30 34 *
Fa
0  0.000000100000000 42 0

0111000
+9 0 *
Ed
 0.000000100000000 1 1 0
1  20 0 0.000000000000000 2.500000000000000
2  145 57 39 0.000000000000000 2.500000000000000
2  146 57 41 0.000000000000000 2.500000000000000
2  147 33 42 0.000000000000000 2.500000000000000
2  148 58 46 0.000000000000000 2.500000000000000
2  149 58 48 0.000000000000000 2.500000000000000
2  150 35 49 0.000000000000000 2.500000000000000
2  151 59 53 0.000000000000000 2.500000000000000
2  152 59 55 0.000000000000000 2.500000000000000
2  153 37 56 0.000000000000000 2.500000000000000
2  154 60 60 0.000000000000000 2.500000000000000
2  155 60 62 0.000000000000000 2.500000000000000
2  156 39 63 0.000000000000000 2.500000000000000
2  157 61 67 0.000000000000000 2.500000000000000
2  158 61 69 0.000000000000000 2.500000000000000
2  159 41 70 0.000000000000000 2.500000000000000
2  160 44 71 0.000000000000000 2.500000000000000
2  161 44 72 0.000000000000000 2.500000000000000
2  162 43 73 0.000000000000000 2.500000000000000
0

0101000
+19 0 -32 0 *
Wi

0101100
+18 0 -10 0 -27 16 +7 34 *
Fa
0  0.000000100000000 44 0

0111000
+6 0 *
Wi

0101100
+17 0 +7 0 -30 0 *
Fa
0  0.000000100000000 43 0

0111000
+4 84 *
Sh

0101100
-60 0 -52 0 -43 0 -40 29 -34 0 +28 0 -25 0 +21 0 -15 0 -13 0 
+11 83 +8 0 -5 0 +3 83 *
So

0100000
+2 0 *

+1 1 