
CASCADE Topology V1, (c) Matra-Datavision
Locations 41
1
1.000000000000000 0.000000000000000 0.000000000000000 0.000000000000000 
0.000000000000000 1.000000000000000 0.000000000000000 0.000000000000000 
0.000000000000000 0.000000000000000 1.000000000000000 0.000000000000000 
1
1.000000000000000 0.000000000000000 0.000000000000000 0.000000000000000 
0.000000000000000 -1.000000000000000 0.000000000000000 0.000000000000000 
0.000000000000000 0.000000000000000 -1.000000000000000 0.000000000000000 
1
1.000000000000000 0.000000000000000 0.000000000000000 0.000000000000000 
0.000000000000000 1.000000000000000 0.000000000000000 0.000000000000000 
0.000000000000000 0.000000000000000 1.000000000000000 0.000000000000000 
2  1 1 2 1 3 -1 0
1
1.000000000000000 0.000000000000000 0.000000000000000 0.000000000000000 
0.000000000000000 1.000000000000000 0.000000000000000 0.000000000000000 
0.000000000000000 0.000000000000000 1.000000000000000 -20.000000000000000 
2  1 1 2 1 3 -1 5 1 0
1
1.000000000000000 0.000000000000000 0.000000000000000 0.000000000000000 
0.000000000000000 1.000000000000000 0.000000000000000 0.000000000000000 
0.000000000000000 0.000000000000000 1.000000000000000 0.000000000000000 
1
1.000000000000000 0.000000000000000 0.000000000000000 0.000000000000000 
0.000000000000000 -1.000000000000000 0.000000000000000 0.000000000000000 
0.000000000000000 0.000000000000000 -1.000000000000000 0.000000000000000 
1
1.000000000000000 0.000000000000000 0.000000000000000 0.000000000000000 
0.000000000000000 1.000000000000000 0.000000000000000 0.000000000000000 
0.000000000000000 0.000000000000000 1.000000000000000 0.000000000000000 
2  7 1 8 -1 9 -1 0
1
1.000000000000000 0.000000000000000 0.000000000000000 0.000000000000000 
0.000000000000000 1.000000000000000 0.000000000000000 0.000000000000000 
0.000000000000000 0.000000000000000 1.000000000000000 -10.000000000000000 
2  11 -1 7 1 8 -1 9 -1 0
2  8 -1 9 -1 0
1
1.000000000000000 0.000000000000000 0.000000000000000 0.000000000000000 
0.000000000000000 1.000000000000000 0.000000000000000 0.000000000000000 
0.000000000000000 0.000000000000000 1.000000000000000 0.000000000000000 
1
1.000000000000000 0.000000000000000 0.000000000000000 0.000000000000000 
0.000000000000000 1.000000000000000 0.000000000000000 0.000000000000000 
0.000000000000000 0.000000000000000 1.000000000000000 0.000000000000000 
1
1.000000000000000 0.000000000000000 0.000000000000000 0.000000000000000 
0.000000000000000 1.000000000000000 0.000000000000000 0.000000000000000 
0.000000000000000 0.000000000000000 1.000000000000000 0.000000000000000 
1
1.000000000000000 0.000000000000000 0.000000000000000 0.000000000000000 
0.000000000000000 1.000000000000000 0.000000000000000 0.000000000000000 
0.000000000000000 0.000000000000000 1.000000000000000 0.000000000000000 
2  14 -1 15 1 16 -1 17 1 8 -1 9 -1 0
1
1.000000000000000 0.000000000000000 0.000000000000000 0.000000000000000 
0.000000000000000 1.000000000000000 0.000000000000000 0.000000000000000 
0.000000000000000 0.000000000000000 1.000000000000000 0.000000000000000 
1
1.000000000000000 0.000000000000000 0.000000000000000 0.000000000000000 
0.000000000000000 -1.000000000000000 0.000000000000000 0.000000000000000 
0.000000000000000 0.000000000000000 -1.000000000000000 0.000000000000000 
1
1.000000000000000 0.000000000000000 0.000000000000000 0.000000000000000 
0.000000000000000 1.000000000000000 0.000000000000000 0.000000000000000 
0.000000000000000 0.000000000000000 1.000000000000000 0.000000000000000 
2  19 1 20 -1 21 -1 0
1
1.000000000000000 0.000000000000000 0.000000000000000 0.000000000000000 
0.000000000000000 1.000000000000000 0.000000000000000 0.000000000000000 
0.000000000000000 0.000000000000000 1.000000000000000 -10.000000000000000 
2  23 -1 19 1 20 -1 21 -1 0
2  20 -1 21 -1 0
2  14 -1 15 1 16 -1 17 1 20 -1 21 -1 0
1
1.000000000000000 0.000000000000000 0.000000000000000 0.000000000000000 
0.000000000000000 1.000000000000000 0.000000000000000 0.000000000000000 
0.000000000000000 0.000000000000000 1.000000000000000 0.000000000000000 
1
1.000000000000000 0.000000000000000 0.000000000000000 0.000000000000000 
0.000000000000000 -1.000000000000000 0.000000000000000 0.000000000000000 
0.000000000000000 0.000000000000000 -1.000000000000000 0.000000000000000 
1
1.000000000000000 0.000000000000000 0.000000000000000 0.000000000000000 
0.000000000000000 1.000000000000000 0.000000000000000 0.000000000000000 
0.000000000000000 0.000000000000000 1.000000000000000 0.000000000000000 
2  27 1 28 -1 29 -1 0
1
1.000000000000000 0.000000000000000 0.000000000000000 0.000000000000000 
0.000000000000000 1.000000000000000 0.000000000000000 0.000000000000000 
0.000000000000000 0.000000000000000 1.000000000000000 -20.000000000000000 
2  31 -1 27 1 28 -1 29 -1 0
2  28 -1 29 -1 0
2  14 -1 15 1 16 -1 17 1 28 -1 29 -1 0
2  3 1 2 -1 1 -1 0
2  5 -1 3 1 2 -1 1 -1 0
2  2 -1 1 -1 0
2  14 -1 15 1 16 -1 17 1 2 -1 1 -1 0
2  3 -1 0
2  1 1 2 1 0
2  3 -1 5 1 0
Curve2ds 36
1 0.00000000000000000 0.00000000000000000 0.00000000000000000 -1.00000000000000000 
1 6.28318530717958623 0.00000000000000000 0.00000000000000000 -1.00000000000000000 
1 0.00000000000000000 0.00000000000000000 1.00000000000000000 0.00000000000000000 
1 0.00000000000000000 -10.00000000000000000 1.00000000000000000 0.00000000000000000 
2 -1.60000000000000009 3.50000000000000044 1.00000000000000000 0.00000000000000000 0.00000000000000000 -1.00000000000000000 0.50000000000000000
2 -1.60000000001294573 3.49999999999745093 1.00000000000000000 0.00000000000000000 0.00000000000000000 -1.00000000000000000 0.50000000000000000
1 0.00000000000000000 0.00000000000000000 1.00000000000000000 0.00000000000000000 
1 0.00000000000000000 -10.00000000000000000 1.00000000000000000 0.00000000000000000 
2 -1.60000000000000009 3.50000000000000044 1.00000000000000000 0.00000000000000000 0.00000000000000000 -1.00000000000000000 0.50000000000000000
2 -1.60000000001294573 3.49999999999745093 1.00000000000000000 0.00000000000000000 0.00000000000000000 -1.00000000000000000 0.50000000000000000
1 0.00000000000000000 0.00000000000000000 1.00000000000000000 0.00000000000000000 
1 0.00000000000000000 -20.00000000000000000 1.00000000000000000 0.00000000000000000 
2 -1.60000000000000009 3.50000000000000044 1.00000000000000000 0.00000000000000000 0.00000000000000000 -1.00000000000000000 0.50000000000000000
2 -1.60000000001294573 3.49999999999745093 1.00000000000000000 0.00000000000000000 0.00000000000000000 -1.00000000000000000 0.50000000000000000
1 0.00000000000000000 0.00000000000000000 1.00000000000000000 0.00000000000000000 
1 0.00000000000000000 -20.00000000000000000 1.00000000000000000 0.00000000000000000 
2 -1.60000000000000009 3.50000000000000044 1.00000000000000000 0.00000000000000000 0.00000000000000000 -1.00000000000000000 0.50000000000000000
2 -1.60000000001294573 3.49999999999745093 1.00000000000000000 0.00000000000000000 0.00000000000000000 -1.00000000000000000 0.50000000000000000
1 0.00000000000000000 0.00000000000000000 0.00000000000000000 -1.00000000000000000 
1 6.28318530717958623 0.00000000000000000 0.00000000000000000 -1.00000000000000000 
1 0.00000000000000000 0.00000000000000000 1.00000000000000000 0.00000000000000000 
1 0.00000000000000000 -10.00000000000000000 1.00000000000000000 0.00000000000000000 
2 1.60000000000000009 -3.49999999999999956 1.00000000000000000 0.00000000000000000 0.00000000000000000 -1.00000000000000000 0.50000000000000000
2 1.59999999998705444 -3.50000000000254907 1.00000000000000000 0.00000000000000000 0.00000000000000000 -1.00000000000000000 0.50000000000000000
1 0.00000000000000000 0.00000000000000000 1.00000000000000000 0.00000000000000000 
1 0.00000000000000000 -10.00000000000000000 1.00000000000000000 0.00000000000000000 
2 1.60000000000000009 -3.49999999999999956 1.00000000000000000 0.00000000000000000 0.00000000000000000 -1.00000000000000000 0.50000000000000000
2 1.59999999998705444 -3.50000000000254907 1.00000000000000000 0.00000000000000000 0.00000000000000000 -1.00000000000000000 0.50000000000000000
1 0.00000000000000000 0.00000000000000000 1.00000000000000000 0.00000000000000000 
1 0.00000000000000000 -20.00000000000000000 1.00000000000000000 0.00000000000000000 
2 1.60000000000000009 -3.49999999999999956 1.00000000000000000 0.00000000000000000 0.00000000000000000 -1.00000000000000000 0.50000000000000000
2 1.59999999998705444 -3.50000000000254907 1.00000000000000000 0.00000000000000000 0.00000000000000000 -1.00000000000000000 0.50000000000000000
1 0.00000000000000000 0.00000000000000000 1.00000000000000000 0.00000000000000000 
1 0.00000000000000000 -20.00000000000000000 1.00000000000000000 0.00000000000000000 
2 1.60000000000000009 -3.49999999999999956 1.00000000000000000 0.00000000000000000 0.00000000000000000 -1.00000000000000000 0.50000000000000000
2 1.59999999998705444 -3.50000000000254907 1.00000000000000000 0.00000000000000000 0.00000000000000000 -1.00000000000000000 0.50000000000000000
Curves 4
1 -1.10000000000000009 3.50000000000000000 0.00000000000000000 0.00000000000000000 0.00000000000000000 -1.00000000000000000 
2 -1.60000000000000009 -3.50000000000000000 0.00000000000000000 0.00000000000000000 0.00000000000000000 1.00000000000000000 1.00000000000000000 0.00000000000000000 -0.00000000000000000 -0.00000000000000000 1.00000000000000000 0.00000000000000000 0.50000000000000000
1 2.10000000000000009 -3.50000000000000000 0.00000000000000000 0.00000000000000000 0.00000000000000000 -1.00000000000000000 
2 1.60000000000000009 3.50000000000000000 0.00000000000000000 0.00000000000000000 0.00000000000000000 1.00000000000000000 1.00000000000000000 0.00000000000000000 -0.00000000000000000 -0.00000000000000000 1.00000000000000000 0.00000000000000000 0.50000000000000000
Polygon3D 0
PolygonOnTriangulations 0
Surfaces 17
2 -1.60000000000000009 3.50000000000000000 0.00000000000000000 -0.00000000000000000 -0.00000000000000000 1.00000000000000000 1.00000000000000000 0.00000000000000000 0.00000000000000000 0.00000000000000000 -1.00000000000000000 -0.00000000000000000 0.50000000000000000
2 -1.60000000000000009 3.50000000000000000 0.00000000000000000 -0.00000000000000000 -0.00000000000000000 1.00000000000000000 1.00000000000000000 0.00000000000000000 0.00000000000000000 0.00000000000000000 -1.00000000000000000 -0.00000000000000000 0.50000000000000000
1 -0.00000000000000010 -0.00000000000000026 0.00000000000000000 0.00000000000000000 0.00000000000000000 1.00000000000000000 1.00000000000000000 0.00000000000000000 -0.00000000000000000 -0.00000000000000000 1.00000000000000000 0.00000000000000000 
1 0.00000000001294562 0.00000000000254885 0.00000000000000000 0.00000000000000000 0.00000000000000000 1.00000000000000000 1.00000000000000000 0.00000000000000000 -0.00000000000000000 -0.00000000000000000 1.00000000000000000 0.00000000000000000 
2 -1.60000000000000009 3.50000000000000000 0.00000000000000000 -0.00000000000000000 -0.00000000000000000 1.00000000000000000 1.00000000000000000 0.00000000000000000 0.00000000000000000 0.00000000000000000 -1.00000000000000000 -0.00000000000000000 0.50000000000000000
1 -0.00000000000000010 -0.00000000000000026 0.00000000000000000 0.00000000000000000 0.00000000000000000 1.00000000000000000 1.00000000000000000 0.00000000000000000 -0.00000000000000000 -0.00000000000000000 1.00000000000000000 0.00000000000000000 
2 -1.60000000000000009 3.50000000000000000 0.00000000000000000 -0.00000000000000000 -0.00000000000000000 1.00000000000000000 1.00000000000000000 0.00000000000000000 0.00000000000000000 0.00000000000000000 -1.00000000000000000 -0.00000000000000000 0.50000000000000000
1 -0.00000000000000010 -0.00000000000000026 0.00000000000000000 0.00000000000000000 0.00000000000000000 1.00000000000000000 1.00000000000000000 0.00000000000000000 -0.00000000000000000 -0.00000000000000000 1.00000000000000000 0.00000000000000000 
1 -0.00000000000000010 -0.00000000000000026 0.00000000000000000 0.00000000000000000 0.00000000000000000 1.00000000000000000 1.00000000000000000 0.00000000000000000 -0.00000000000000000 -0.00000000000000000 1.00000000000000000 0.00000000000000000 
2 1.60000000000000009 -3.50000000000000000 0.00000000000000000 -0.00000000000000000 -0.00000000000000000 1.00000000000000000 1.00000000000000000 0.00000000000000000 0.00000000000000000 0.00000000000000000 -1.00000000000000000 -0.00000000000000000 0.50000000000000000
2 1.60000000000000009 -3.50000000000000000 0.00000000000000000 -0.00000000000000000 -0.00000000000000000 1.00000000000000000 1.00000000000000000 0.00000000000000000 0.00000000000000000 0.00000000000000000 -1.00000000000000000 -0.00000000000000000 0.50000000000000000
1 -0.00000000000000010 -0.00000000000000026 0.00000000000000000 0.00000000000000000 0.00000000000000000 1.00000000000000000 1.00000000000000000 0.00000000000000000 -0.00000000000000000 -0.00000000000000000 1.00000000000000000 0.00000000000000000 
2 1.60000000000000009 -3.50000000000000000 0.00000000000000000 -0.00000000000000000 -0.00000000000000000 1.00000000000000000 1.00000000000000000 0.00000000000000000 0.00000000000000000 0.00000000000000000 -1.00000000000000000 -0.00000000000000000 0.50000000000000000
1 -0.00000000000000010 -0.00000000000000026 0.00000000000000000 0.00000000000000000 0.00000000000000000 1.00000000000000000 1.00000000000000000 0.00000000000000000 -0.00000000000000000 -0.00000000000000000 1.00000000000000000 0.00000000000000000 
2 1.60000000000000009 -3.50000000000000000 0.00000000000000000 -0.00000000000000000 -0.00000000000000000 1.00000000000000000 1.00000000000000000 0.00000000000000000 0.00000000000000000 0.00000000000000000 -1.00000000000000000 -0.00000000000000000 0.50000000000000000
1 -0.00000000000000010 -0.00000000000000026 0.00000000000000000 0.00000000000000000 0.00000000000000000 1.00000000000000000 1.00000000000000000 0.00000000000000000 -0.00000000000000000 -0.00000000000000000 1.00000000000000000 0.00000000000000000 
1 -0.00000000000000010 -0.00000000000000026 0.00000000000000000 0.00000000000000000 0.00000000000000000 1.00000000000000000 1.00000000000000000 0.00000000000000000 -0.00000000000000000 -0.00000000000000000 1.00000000000000000 0.00000000000000000 
Triangulations 0

TShapes 19
Ve
0.000000100000000
-1.100000000000000 -3.500000000000000 0.000000000000000
0 0

0101101
*
Ed
 0.000000100000000 1 1 0
1  1 0 0.000000000000000 20.000000000000000
3  1 2CN 1 0 0.000000000000000 20.000000000000000
0

0101000
+19 4 -19 6 *
Ed
 0.000000100000000 1 1 0
1  2 0 0.000000000000000 6.283185307179586
2  3 2 10 0.000000000000000 6.283185307179586
2  4 2 12 0.000000000000000 6.283185307179586
2  5 3 13 0.000000000000000 6.283185307179586
2  6 4 18 0.000000000000000 6.283185307179586
2  7 5 22 0.000000000000000 6.283185307179586
2  8 5 24 0.000000000000000 6.283185307179586
2  9 6 25 0.000000000000000 6.283185307179586
2  10 4 26 0.000000000000000 6.283185307179586
2  11 7 30 0.000000000000000 6.283185307179586
2  12 7 32 0.000000000000000 6.283185307179586
2  13 8 33 0.000000000000000 6.283185307179586
2  14 4 34 0.000000000000000 6.283185307179586
2  15 1 35 0.000000000000000 6.283185307179586
2  16 1 36 0.000000000000000 6.283185307179586
2  17 9 37 0.000000000000000 6.283185307179586
2  18 4 38 0.000000000000000 6.283185307179586
0

0101000
+19 0 -19 0 *
Wi

0101100
+18 0 -18 0 -17 4 +17 6 *
Fa
0  0.000000100000000 1 0

0111000
+16 0 *
Wi

0101100
+17 0 *
Fa
0  0.000000100000000 9 0

0111000
-14 40 *
Sh

0101100
-15 0 +13 39 -13 41 *
So

0100000
+12 0 *
Ve
0.000000100000000
2.100000000000000 3.500000000000000 0.000000000000000
0 0

0101101
*
Ed
 0.000000100000000 1 1 0
1  3 0 0.000000000000000 20.000000000000000
3  19 20CN 10 0 0.000000000000000 20.000000000000000
0

0101000
+10 4 -10 6 *
Ed
 0.000000100000000 1 1 0
1  4 0 0.000000000000000 6.283185307179586
2  21 11 10 0.000000000000000 6.283185307179586
2  22 11 12 0.000000000000000 6.283185307179586
2  23 12 13 0.000000000000000 6.283185307179586
2  24 4 18 0.000000000000000 6.283185307179586
2  25 13 22 0.000000000000000 6.283185307179586
2  26 13 24 0.000000000000000 6.283185307179586
2  27 14 25 0.000000000000000 6.283185307179586
2  28 4 26 0.000000000000000 6.283185307179586
2  29 15 30 0.000000000000000 6.283185307179586
2  30 15 32 0.000000000000000 6.283185307179586
2  31 16 33 0.000000000000000 6.283185307179586
2  32 4 34 0.000000000000000 6.283185307179586
2  33 10 35 0.000000000000000 6.283185307179586
2  34 10 36 0.000000000000000 6.283185307179586
2  35 17 37 0.000000000000000 6.283185307179586
2  36 4 38 0.000000000000000 6.283185307179586
0

0101000
+10 0 -10 0 *
Wi

0101100
+9 0 -9 0 -8 4 +8 6 *
Fa
0  0.000000100000000 10 0

0111000
+7 0 *
Wi

0101100
+8 0 *
Fa
0  0.000000100000000 17 0

0111000
-5 40 *
Sh

0101100
-6 0 +4 39 -4 41 *
So

0100000
+3 0 *
Co

0100000
+11 0 +2 0 *

+1 0 