
CASCADE Topology V1, (c) Matra-Datavision
Locations 16
1
0.719339800338651 0.624354807580428 -0.304518186484743 0.000000000000000 
-0.694658370458998 0.646538329810411 -0.315337813205481 0.000000000000000 
0.000000000000000 0.438371146789078 0.898794046299167 26.000000000000000 
1
1.000000000000000 0.000000000000000 0.000000000000000 0.000000000000000 
0.000000000000000 1.000000000000000 0.000000000000000 0.000000000000000 
0.000000000000000 0.000000000000000 1.000000000000000 0.000000000000000 
2  2 -1 0
1
1.000000000000000 0.000000000000000 0.000000000000000 0.000000000000000 
0.000000000000000 1.000000000000000 0.000000000000000 0.000000000000000 
0.000000000000000 0.000000000000000 1.000000000000000 0.000000000000000 
1
1.000000000000000 0.000000000000000 0.000000000000000 0.000000000000000 
0.000000000000000 1.000000000000000 0.000000000000000 0.000000000000000 
0.000000000000000 0.000000000000000 1.000000000000000 0.000000000000000 
1
1.000000000000000 0.000000000000000 0.000000000000000 0.000000000000000 
0.000000000000000 1.000000000000000 0.000000000000000 0.000000000000000 
0.000000000000000 0.000000000000000 1.000000000000000 0.000000000000000 
2  4 1 5 1 6 -1 0
2  6 1 5 -1 4 -1 0
2  2 -1 6 1 5 -1 4 -1 0
1
1.000000000000000 0.000000000000000 0.000000000000000 0.000000000000000 
0.000000000000000 1.000000000000000 0.000000000000000 0.000000000000000 
0.000000000000000 0.000000000000000 1.000000000000000 0.500000000000000 
2  4 1 5 1 6 -1 10 1 0
2  10 -1 6 1 5 -1 4 -1 0
2  2 -1 10 -1 6 1 5 -1 4 -1 0
2  6 -1 0
2  4 1 5 1 0
2  6 -1 10 1 0
Curve2ds 8
1 0.05265590826156979 0.00000000000000000 0.00000000000000000 -1.00000000000000000 
1 3.08893674532822349 0.00000000000000000 0.00000000000000000 -1.00000000000000000 
1 0.00000000000000000 0.00000000000000000 1.00000000000000000 0.00000000000000000 
1 0.00000000000000000 -0.50000000000000000 1.00000000000000000 0.00000000000000000 
1 3.19424856185136319 0.00000000000000000 0.00000000000000000 -1.00000000000000000 
1 6.23052939891801660 0.00000000000000000 0.00000000000000000 -1.00000000000000000 
1 0.00000000000000000 0.00000000000000000 1.00000000000000000 0.00000000000000000 
1 0.00000000000000000 -0.50000000000000000 1.00000000000000000 0.00000000000000000 
Curves 24
1 4.74341649025256906 0.25000000000000000 0.00000000000000000 0.00000000000000000 0.00000000000000000 1.00000000000000000 
1 -4.74341649025256906 0.24999999999999992 0.00000000000000000 0.00000000000000000 0.00000000000000000 1.00000000000000000 
2 -0.00000000000000044 0.00000000000000000 0.00000000000000000 0.00000000000000000 0.00000000000000000 1.00000000000000000 1.00000000000000000 0.00000000000000000 -0.00000000000000000 -0.00000000000000000 1.00000000000000000 0.00000000000000000 4.75000000000000000
2 -0.00000000000000044 0.00000000000000000 0.00000000000000000 0.00000000000000000 0.00000000000000000 1.00000000000000000 1.00000000000000000 0.00000000000000000 -0.00000000000000000 -0.00000000000000000 1.00000000000000000 0.00000000000000000 4.75000000000000000
1 -6.00000000000000000 0.25000000000000000 0.00000000000000000 0.00000000000000000 0.00000000000000000 1.00000000000000000 
1 -6.00000000000000000 0.25000000000000000 0.00000000000000000 1.00000000000000000 0.00000000000000000 0.00000000000000000 
1 -6.00000000000000000 0.25000000000000000 0.00000000000000000 1.00000000000000000 0.00000000000000000 0.00000000000000000 
1 -6.00000000000000000 -0.25000000000000000 0.00000000000000000 0.00000000000000000 0.00000000000000000 1.00000000000000000 
1 -6.00000000000000000 0.25000000000000000 0.00000000000000000 0.00000000000000000 -1.00000000000000000 0.00000000000000000 
1 -6.00000000000000000 0.25000000000000000 0.00000000000000000 0.00000000000000000 -1.00000000000000000 0.00000000000000000 
1 -4.74341649025256906 -0.25000000000000033 0.00000000000000000 0.00000000000000000 0.00000000000000000 1.00000000000000000 
1 -6.00000000000000000 -0.25000000000000000 0.00000000000000000 1.00000000000000000 0.00000000000000000 0.00000000000000000 
1 -6.00000000000000000 -0.25000000000000000 0.00000000000000000 1.00000000000000000 0.00000000000000000 0.00000000000000000 
1 4.74341649025256906 -0.25000000000000039 0.00000000000000000 0.00000000000000000 0.00000000000000000 1.00000000000000000 
2 -0.00000000000000044 0.00000000000000000 0.00000000000000000 0.00000000000000000 0.00000000000000000 1.00000000000000000 1.00000000000000000 0.00000000000000000 -0.00000000000000000 -0.00000000000000000 1.00000000000000000 0.00000000000000000 4.75000000000000000
2 -0.00000000000000044 0.00000000000000000 0.00000000000000000 0.00000000000000000 0.00000000000000000 1.00000000000000000 1.00000000000000000 0.00000000000000000 -0.00000000000000000 -0.00000000000000000 1.00000000000000000 0.00000000000000000 4.75000000000000000
1 6.00000000000000000 -0.25000000000000044 0.00000000000000000 0.00000000000000000 0.00000000000000000 1.00000000000000000 
1 6.00000000000000000 -0.25000000000000039 0.00000000000000000 -1.00000000000000000 0.00000000000000000 0.00000000000000000 
1 6.00000000000000000 -0.25000000000000039 0.00000000000000000 -1.00000000000000000 0.00000000000000000 0.00000000000000000 
1 6.00000000000000000 0.25000000000000000 0.00000000000000000 0.00000000000000000 0.00000000000000000 1.00000000000000000 
1 6.00000000000000000 0.25000000000000000 0.00000000000000000 0.00000000000000000 -1.00000000000000000 0.00000000000000000 
1 6.00000000000000000 0.25000000000000000 0.00000000000000000 0.00000000000000000 -1.00000000000000000 0.00000000000000000 
1 4.74341649025256906 0.25000000000000000 0.00000000000000000 1.00000000000000000 0.00000000000000000 0.00000000000000000 
1 4.74341649025256906 0.25000000000000000 0.00000000000000000 1.00000000000000000 0.00000000000000000 0.00000000000000000 
Polygon3D 0
PolygonOnTriangulations 0
Surfaces 10
2 -0.00000000000000044 0.00000000000000000 0.00000000000000000 -0.00000000000000000 -0.00000000000000000 -1.00000000000000000 1.00000000000000000 0.00000000000000000 0.00000000000000000 -0.00000000000000000 1.00000000000000000 -0.00000000000000000 4.75000000000000000
1 -6.00000000000000000 0.25000000000000000 0.00000000000000000 0.00000000000000000 1.00000000000000000 0.00000000000000000 1.00000000000000000 0.00000000000000000 0.00000000000000000 0.00000000000000000 0.00000000000000000 -1.00000000000000000 
1 -6.00000000000000000 0.25000000000000000 0.00000000000000000 1.00000000000000000 0.00000000000000000 0.00000000000000000 0.00000000000000000 -1.00000000000000000 0.00000000000000000 0.00000000000000000 0.00000000000000000 -1.00000000000000000 
1 -6.00000000000000000 -0.25000000000000000 0.00000000000000000 0.00000000000000000 1.00000000000000000 0.00000000000000000 1.00000000000000000 0.00000000000000000 0.00000000000000000 0.00000000000000000 0.00000000000000000 -1.00000000000000000 
2 -0.00000000000000044 0.00000000000000000 0.00000000000000000 -0.00000000000000000 -0.00000000000000000 -1.00000000000000000 1.00000000000000000 0.00000000000000000 0.00000000000000000 -0.00000000000000000 1.00000000000000000 -0.00000000000000000 4.75000000000000000
1 6.00000000000000000 -0.25000000000000039 0.00000000000000000 0.00000000000000000 -1.00000000000000000 0.00000000000000000 -1.00000000000000000 0.00000000000000000 0.00000000000000000 -0.00000000000000000 -0.00000000000000000 -1.00000000000000000 
1 6.00000000000000000 0.25000000000000000 0.00000000000000000 1.00000000000000000 0.00000000000000000 0.00000000000000000 0.00000000000000000 -1.00000000000000000 0.00000000000000000 0.00000000000000000 0.00000000000000000 -1.00000000000000000 
1 4.74341649025256906 0.25000000000000000 0.00000000000000000 0.00000000000000000 1.00000000000000000 0.00000000000000000 1.00000000000000000 0.00000000000000000 0.00000000000000000 0.00000000000000000 0.00000000000000000 -1.00000000000000000 
1 0.00000000000000009 -0.00000000000000017 0.00000000000000000 0.00000000000000000 0.00000000000000000 1.00000000000000000 1.00000000000000000 0.00000000000000000 -0.00000000000000000 -0.00000000000000000 1.00000000000000000 0.00000000000000000 
1 0.00000000000000009 -0.00000000000000017 0.00000000000000000 0.00000000000000000 0.00000000000000000 1.00000000000000000 1.00000000000000000 0.00000000000000000 -0.00000000000000000 -0.00000000000000000 1.00000000000000000 0.00000000000000000 
Triangulations 0

TShapes 62
Ve
0.000000100000000
4.743416490252569 0.250000000000000 0.000000000000000
0 0

0101101
*
Ve
0.000000100000000
4.743416490252569 0.250000000000000 0.500000000000000
0 0

0101101
*
Ed
 0.000000100000000 1 1 0
1  1 0 0.000000000000000 0.500000000000000
2  1 1 0 0.000000000000000 0.500000000000000
0

0101000
+62 3 -61 3 *
Ve
0.000000100000000
-4.743416490252569 0.250000000000000 0.000000000000000
0 0

0101101
*
Ve
0.000000100000000
-4.743416490252569 0.250000000000000 0.500000000000000
0 0

0101101
*
Ed
 0.000000100000000 1 1 0
1  2 0 0.000000000000000 0.500000000000000
2  2 1 0 0.000000000000000 0.500000000000000
0

0101000
+59 3 -58 3 *
Ed
 0.000000100000000 1 1 0
1  3 0 0.052655908261570 3.088936745328223
2  3 1 8 0.052655908261570 3.088936745328223
0

0101000
+62 9 -59 9 *
Ed
 0.000000100000000 1 1 0
1  4 0 0.052655908261570 3.088936745328223
2  4 1 12 0.052655908261570 3.088936745328223
0

0101000
+61 13 -58 13 *
Wi

0101100
+60 0 -57 0 -56 7 +55 11 *
Fa
0  0.000000100000000 1 0

0111000
+54 0 *
Ve
0.000000100000000
-6.000000000000000 0.250000000000000 0.000000000000000
0 0

0101101
*
Ve
0.000000100000000
-6.000000000000000 0.250000000000000 0.500000000000000
0 0

0101101
*
Ed
 0.000000100000000 1 1 0
1  5 0 0.000000000000000 0.500000000000000
0

0101000
+52 3 -51 3 *
Ed
 0.000000100000000 1 1 0
1  6 0 0.000000000000000 1.256583509747431
0

0101000
+52 9 -59 9 *
Ed
 0.000000100000000 1 1 0
1  7 0 0.000000000000000 1.256583509747431
0

0101000
+51 13 -58 13 *
Wi

0101100
+50 0 -57 0 -49 7 +48 11 *
Fa
0  0.000000100000000 2 0

0111000
+47 0 *
Ve
0.000000100000000
-6.000000000000000 -0.250000000000000 0.000000000000000
0 0

0101101
*
Ve
0.000000100000000
-6.000000000000000 -0.250000000000000 0.500000000000000
0 0

0101101
*
Ed
 0.000000100000000 1 1 0
1  8 0 0.000000000000000 0.500000000000000
0

0101000
+45 3 -44 3 *
Ed
 0.000000100000000 1 1 0
1  9 0 0.000000000000000 0.500000000000000
0

0101000
+52 9 -45 9 *
Ed
 0.000000100000000 1 1 0
1  10 0 0.000000000000000 0.500000000000000
0

0101000
+51 13 -44 13 *
Wi

0101100
+50 0 -43 0 -42 7 +41 11 *
Fa
0  0.000000100000000 3 0

0101000
+40 0 *
Ve
0.000000100000000
-4.743416490252569 -0.250000000000000 0.000000000000000
0 0

0101101
*
Ve
0.000000100000000
-4.743416490252569 -0.250000000000000 0.500000000000000
0 0

0101101
*
Ed
 0.000000100000000 1 1 0
1  11 0 0.000000000000000 0.500000000000000
2  5 5 0 0.000000000000000 0.500000000000000
0

0101000
+38 3 -37 3 *
Ed
 0.000000100000000 1 1 0
1  12 0 0.000000000000000 1.256583509747431
0

0101000
+45 9 -38 9 *
Ed
 0.000000100000000 1 1 0
1  13 0 0.000000000000000 1.256583509747431
0

0101000
+44 13 -37 13 *
Wi

0101100
+43 0 -36 0 -35 7 +34 11 *
Fa
0  0.000000100000000 4 0

0111000
+33 0 *
Ve
0.000000100000000
4.743416490252569 -0.250000000000000 0.000000000000000
0 0

0101101
*
Ve
0.000000100000000
4.743416490252569 -0.250000000000000 0.500000000000000
0 0

0101101
*
Ed
 0.000000100000000 1 1 0
1  14 0 0.000000000000000 0.500000000000000
2  6 5 0 0.000000000000000 0.500000000000000
0

0101000
+31 3 -30 3 *
Ed
 0.000000100000000 1 1 0
1  15 0 3.194248561851363 6.230529398918017
2  7 5 8 3.194248561851363 6.230529398918017
0

0101000
+38 9 -31 9 *
Ed
 0.000000100000000 1 1 0
1  16 0 3.194248561851363 6.230529398918017
2  8 5 12 3.194248561851363 6.230529398918017
0

0101000
+37 13 -30 13 *
Wi

0101100
+36 0 -29 0 -28 7 +27 11 *
Fa
0  0.000000100000000 5 0

0111000
+26 0 *
Ve
0.000000100000000
6.000000000000000 -0.250000000000000 0.000000000000000
0 0

0101101
*
Ve
0.000000100000000
6.000000000000000 -0.250000000000000 0.500000000000000
0 0

0101101
*
Ed
 0.000000100000000 1 1 0
1  17 0 0.000000000000000 0.500000000000000
0

0101000
+24 3 -23 3 *
Ed
 0.000000100000000 1 1 0
1  18 0 0.000000000000000 1.256583509747431
0

0101000
+24 9 -31 9 *
Ed
 0.000000100000000 1 1 0
1  19 0 0.000000000000000 1.256583509747431
0

0101000
+23 13 -30 13 *
Wi

0101100
+22 0 -29 0 -21 7 +20 11 *
Fa
0  0.000000100000000 6 0

0111000
+19 0 *
Ve
0.000000100000000
6.000000000000000 0.250000000000000 0.000000000000000
0 0

0101101
*
Ve
0.000000100000000
6.000000000000000 0.250000000000000 0.500000000000000
0 0

0101101
*
Ed
 0.000000100000000 1 1 0
1  20 0 0.000000000000000 0.500000000000000
0

0101000
+17 3 -16 3 *
Ed
 0.000000100000000 1 1 0
1  21 0 0.000000000000000 0.500000000000000
0

0101000
+17 9 -24 9 *
Ed
 0.000000100000000 1 1 0
1  22 0 0.000000000000000 0.500000000000000
0

0101000
+16 13 -23 13 *
Wi

0101100
+15 0 -22 0 -14 7 +13 11 *
Fa
0  0.000000100000000 7 0

0101000
+12 0 *
Ed
 0.000000100000000 1 1 0
1  23 0 0.000000000000000 1.256583509747431
0

0101000
+62 9 -17 9 *
Ed
 0.000000100000000 1 1 0
1  24 0 0.000000000000000 1.256583509747431
0

0101000
+61 13 -16 13 *
Wi

0101100
+60 0 -15 0 -10 7 +9 11 *
Fa
0  0.000000100000000 8 0

0111000
+8 0 *
Wi

0101100
+56 0 -49 0 +42 0 +35 0 +28 0 -21 0 -14 0 -10 0 *
Fa
0  0.000000100000000 9 0

0111000
+6 15 *
Wi

0101100
+55 0 -48 0 +41 0 +34 0 +27 0 -20 0 -13 0 -9 0 *
Fa
0  0.000000100000000 10 0

0111000
+4 15 *
Sh

0101100
+53 0 -46 0 +39 0 +32 0 +25 0 -18 0 -11 0 -7 0 +5 14 -3 16 
*
So

0100000
-2 0 *

+1 1 