
CASCADE Topology V1, (c) Matra-Datavision
Locations 24
1
1.000000000000000 0.000000000000000 0.000000000000000 0.000000000000000 
0.000000000000000 1.000000000000000 0.000000000000000 0.000000000000000 
0.000000000000000 0.000000000000000 1.000000000000000 0.000000000000000 
1
1.000000000000000 0.000000000000000 0.000000000000000 0.000000000000000 
0.000000000000000 1.000000000000000 0.000000000000000 0.000000000000000 
0.000000000000000 0.000000000000000 1.000000000000000 0.000000000000000 
1
1.000000000000000 0.000000000000000 0.000000000000000 0.000000000000000 
0.000000000000000 1.000000000000000 0.000000000000000 0.000000000000000 
0.000000000000000 0.000000000000000 1.000000000000000 0.000000000000000 
1
1.000000000000000 0.000000000000000 0.000000000000000 0.000000000000000 
0.000000000000000 1.000000000000000 0.000000000000000 0.000000000000000 
0.000000000000000 0.000000000000000 1.000000000000000 0.000000000000000 
2  2 1 3 1 4 -1 0
1
1.000000000000000 0.000000000000000 0.000000000000000 0.000000000000000 
0.000000000000000 1.000000000000000 0.000000000000000 0.000000000000000 
0.000000000000000 0.000000000000000 1.000000000000000 5.500000000000000 
2  2 1 3 1 4 -1 6 1 0
2  4 1 3 -1 2 -1 0
2  6 -1 4 1 3 -1 2 -1 0
2  3 -1 2 -1 0
1
1.000000000000000 0.000000000000000 0.000000000000000 0.000000000000000 
0.000000000000000 1.000000000000000 0.000000000000000 0.000000000000000 
0.000000000000000 0.000000000000000 1.000000000000000 0.000000000000000 
1
1.000000000000000 0.000000000000000 0.000000000000000 7.894444444444444 
0.000000000000000 1.000000000000000 0.000000000000000 0.000000000000000 
0.000000000000000 0.000000000000000 1.000000000000000 0.000000000000000 
1
1.000000000000000 0.000000000000000 0.000000000000000 0.000000000000000 
0.000000000000000 1.000000000000000 0.000000000000000 0.000000000000000 
0.000000000000000 0.000000000000000 1.000000000000000 0.000000000000000 
1
1.000000000000000 0.000000000000000 0.000000000000000 0.000000000000000 
0.000000000000000 1.000000000000000 0.000000000000000 0.000000000000000 
0.000000000000000 0.000000000000000 1.000000000000000 0.000000000000000 
2  11 1 12 1 13 -1 14 1 1 -1 0
1
1.000000000000000 0.000000000000000 0.000000000000000 0.000000000000000 
0.000000000000000 1.000000000000000 0.000000000000000 0.000000000000000 
0.000000000000000 0.000000000000000 1.000000000000000 0.000000000000000 
1
1.000000000000000 0.000000000000000 0.000000000000000 8.881250000000000 
0.000000000000000 1.000000000000000 0.000000000000000 0.000000000000000 
0.000000000000000 0.000000000000000 1.000000000000000 0.000000000000000 
1
1.000000000000000 0.000000000000000 0.000000000000000 0.000000000000000 
0.000000000000000 1.000000000000000 0.000000000000000 0.000000000000000 
0.000000000000000 0.000000000000000 1.000000000000000 0.000000000000000 
2  16 1 17 1 18 -1 14 1 1 -1 0
2  4 -1 11 1 12 1 13 -1 14 1 1 -1 4 1 3 -1 2 -1 0
2  4 -1 16 1 17 1 18 -1 14 1 1 -1 4 1 3 -1 2 -1 0
2  4 -1 0
2  2 1 3 1 0
2  4 -1 6 1 0
Curve2ds 24
1 0.00000000000000000 0.00000000000000000 0.00000000000000000 -1.00000000000000000 
1 10.15000000000000213 0.00000000000000000 0.00000000000000000 -1.00000000000000000 
1 10.15000000000022951 0.00000000000000000 0.00000000000000000 -1.00000000000000000 
1 0.00000000000000000 0.00000000000000000 0.00000000000000000 -1.00000000000000000 
1 0.00000000000000000 0.00000000000000000 1.00000000000000000 0.00000000000000000 
1 0.00000000000000000 -5.50000000000000000 1.00000000000000000 0.00000000000000000 
1 -5.07500000001893703 5.07500000000342322 0.00000000000274110 -1.00000000000000000 
1 10.15000000001798064 0.00000000000000000 0.00000000000000000 -1.00000000000000000 
1 0.00000000000000000 0.00000000000000000 0.00000000000000000 -1.00000000000000000 
1 0.00000000000000000 0.00000000000000000 1.00000000000000000 0.00000000000000000 
1 0.00000000000000000 -5.50000000000000000 1.00000000000000000 0.00000000000000000 
1 -5.07499999999111484 -5.07499999999680629 1.00000000000000000 -0.00000000000041828 
1 10.15000000000447500 0.00000000000000000 0.00000000000000000 -1.00000000000000000 
1 0.00000000000000000 -0.00000000000000000 0.00000000000000000 -1.00000000000000000 
1 7.89444444444444393 0.00000000000000000 0.00000000000000000 -1.00000000000000000 
1 8.88124999999999964 0.00000000000000000 0.00000000000000000 -1.00000000000000000 
1 0.00000000000000000 0.00000000000000000 1.00000000000000000 0.00000000000000000 
1 0.00000000000000000 -5.50000000000000000 1.00000000000000000 0.00000000000000000 
1 5.07500000002686580 -5.07500000000105178 -0.00000000000451238 1.00000000000000000 
1 -2.81944444441757858 -5.07500000000105178 -0.00000000000451238 1.00000000000000000 
1 -3.80624999997313429 -5.07500000000105178 -0.00000000000451238 1.00000000000000000 
1 0.00000000000000000 -0.00000000000000000 1.00000000000000000 0.00000000000000000 
1 0.00000000000000000 -5.50000000000000000 1.00000000000000000 0.00000000000000000 
1 5.07499999998106510 5.07500000000342322 -1.00000000000000000 0.00000000000000000 
Curves 8
1 -5.07500000000599183 5.07500000000597229 0.00000000000000000 0.00000000000000000 0.00000000000000000 1.00000000000000000 
1 -5.07499999997816964 -5.07499999999425722 0.00000000000000000 0.00000000000000000 0.00000000000000000 1.00000000000000000 
1 -5.07500000000599183 5.07500000000597229 0.00000000000000000 0.00000000000274110 -1.00000000000000000 0.00000000000000000 
1 5.07500000003981100 -5.07499999999850271 0.00000000000000000 0.00000000000000000 0.00000000000000000 1.00000000000000000 
1 -5.07499999997816964 -5.07499999999425722 0.00000000000000000 1.00000000000000000 -0.00000000000041828 0.00000000000000000 
1 5.07499999999401030 5.07500000000597229 0.00000000000000000 0.00000000000000000 0.00000000000000000 1.00000000000000000 
1 5.07500000003981100 -5.07499999999850271 0.00000000000000000 -0.00000000000451238 1.00000000000000000 0.00000000000000000 
1 5.07499999999401030 5.07500000000597229 0.00000000000000000 -1.00000000000000000 0.00000000000000000 0.00000000000000000 
Polygon3D 0
PolygonOnTriangulations 0
Surfaces 9
1 -5.07500000000599183 5.07500000000597229 0.00000000000000000 1.00000000000000000 0.00000000000274110 -0.00000000000000000 0.00000000000274110 -1.00000000000000000 0.00000000000000000 0.00000000000000000 -0.00000000000000000 -1.00000000000000000 
1 5.07499999999401030 5.07500000000597229 0.00000000000000000 0.00000000000000000 -1.00000000000000000 0.00000000000000000 -1.00000000000000000 0.00000000000000000 0.00000000000000000 -0.00000000000000000 -0.00000000000000000 -1.00000000000000000 
1 -5.07499999997816964 -5.07499999999425722 0.00000000000000000 0.00000000000041828 1.00000000000000000 -0.00000000000000000 1.00000000000000000 -0.00000000000041828 0.00000000000000000 0.00000000000000000 -0.00000000000000000 -1.00000000000000000 
1 0.00000000001294562 0.00000000000254885 0.00000000000000000 0.00000000000000000 0.00000000000000000 1.00000000000000000 1.00000000000000000 0.00000000000000000 -0.00000000000000000 -0.00000000000000000 1.00000000000000000 0.00000000000000000 
1 5.07500000003981100 -5.07499999999850271 0.00000000000000000 -1.00000000000000000 -0.00000000000451238 0.00000000000000000 -0.00000000000451238 1.00000000000000000 0.00000000000000000 -0.00000000000000000 0.00000000000000000 -1.00000000000000000 
1 5.07499999999401030 5.07500000000597229 0.00000000000000000 0.00000000000000000 -1.00000000000000000 0.00000000000000000 -1.00000000000000000 0.00000000000000000 0.00000000000000000 -0.00000000000000000 -0.00000000000000000 -1.00000000000000000 
1 5.07499999999401030 5.07500000000597229 0.00000000000000000 0.00000000000000000 -1.00000000000000000 0.00000000000000000 -1.00000000000000000 0.00000000000000000 0.00000000000000000 -0.00000000000000000 -0.00000000000000000 -1.00000000000000000 
1 0.00000000001294562 0.00000000000254885 0.00000000000000000 0.00000000000000000 0.00000000000000000 1.00000000000000000 1.00000000000000000 0.00000000000000000 -0.00000000000000000 -0.00000000000000000 1.00000000000000000 0.00000000000000000 
1 0.00000000001294562 0.00000000000254885 0.00000000000000000 0.00000000000000000 0.00000000000000000 1.00000000000000000 1.00000000000000000 0.00000000000000000 -0.00000000000000000 -0.00000000000000000 1.00000000000000000 0.00000000000000000 
Triangulations 0

TShapes 24
Ve
0.000000100000000
-5.075000000005992 5.075000000005972 0.000000000000000
0 0

0101101
*
Ed
 0.000000100000000 1 1 0
1  1 0 0.000000000000000 5.500000000000000
2  1 1 0 0.000000000000000 5.500000000000000
2  2 2 0 0.000000000000000 5.500000000000000
0

0101000
+24 5 -24 7 *
Ve
0.000000100000000
-5.074999999978170 -5.074999999994257 0.000000000000000
0 0

0101101
*
Ed
 0.000000100000000 1 1 0
1  2 0 0.000000000000000 5.500000000000000
2  3 1 0 0.000000000000000 5.500000000000000
2  4 3 0 0.000000000000000 5.500000000000000
0

0101000
+22 5 -22 7 *
Ed
 0.000000100000000 1 1 0
1  3 0 0.000000000000000 10.150000000000230
2  5 1 8 0.000000000000000 10.150000000000230
2  6 1 9 0.000000000000000 10.150000000000230
2  7 4 10 0.000000000000000 10.150000000000230
0

0101000
+24 0 -22 0 *
Wi

0101100
+23 0 -21 0 -20 5 +20 7 *
Fa
0  0.000000100000000 1 0

0111000
+19 0 *
Ve
0.000000100003715
5.075000000039811 -5.074999999998503 0.000000000000000
0 0

0101101
*
Ed
 0.000000100000000 1 1 0
1  4 0 0.000000000000000 5.500000000000000
2  8 3 0 0.000000000000000 5.500000000000000
2  9 5 0 0.000000000000000 5.500000000000000
0

0101000
+17 5 -17 7 *
Ed
 0.000000100000000 1 1 0
1  5 0 0.000000000000000 10.150000000017981
2  10 3 8 0.000000000000000 10.150000000017981
2  11 3 9 0.000000000000000 10.150000000017981
2  12 4 10 0.000000000000000 10.150000000017981
0

0101000
+22 0 -17 0 *
Wi

0101100
+21 0 -16 0 -15 5 +15 7 *
Fa
0  0.000000100000000 3 0

0111000
+14 0 *
Ve
0.000000100000002
5.074999999994010 5.075000000005972 0.000000000000000
0 0

0101101
*
Ed
 0.000000100000000 1 1 0
1  6 0 0.000000000000000 5.500000000000000
2  13 5 0 0.000000000000000 5.500000000000000
2  14 2 0 0.000000000000000 5.500000000000000
2  15 6 15 0.000000000000000 5.500000000000000
2  16 7 19 0.000000000000000 5.500000000000000
0

0101000
+12 5 -12 7 *
Ed
 0.000000100000000 1 1 0
1  7 0 0.000000000000000 10.150000000004475
2  17 5 8 0.000000000000000 10.150000000004475
2  18 5 9 0.000000000000000 10.150000000004475
2  19 4 10 0.000000000000000 10.150000000004475
2  20 8 20 0.000000000000000 10.150000000004475
2  21 9 21 0.000000000000000 10.150000000004475
0

0101000
+17 0 -12 0 *
Wi

0101100
+16 0 -11 0 -10 5 +10 7 *
Fa
0  0.000000100000000 5 0

0111000
+9 0 *
Ed
 0.000000100000000 1 1 0
1  8 0 0.000000000000000 10.150000000000002
2  22 2 8 0.000000000000000 10.150000000000002
2  23 2 9 0.000000000000000 10.150000000000002
2  24 4 10 0.000000000000000 10.150000000000002
0

0101000
+12 0 -24 0 *
Wi

0101100
+11 0 -23 0 -7 5 +7 7 *
Fa
0  0.000000100000000 2 0

0111000
+6 0 *
Wi

0101100
+20 0 +15 0 +10 0 +7 0 *
Fa
0  0.000000100000000 4 0

0111000
+4 23 *
Sh

0101100
+18 0 +13 0 +8 0 +5 0 +3 22 -3 24 *
So

1100000
-2 0 *

+1 1 