
CASCADE Topology V1, (c) Matra-Datavision
Locations 27
1
1.000000000000000 0.000000000000000 0.000000000000000 0.000000000000000 
0.000000000000000 1.000000000000000 0.000000000000000 0.000000000000000 
0.000000000000000 0.000000000000000 1.000000000000000 0.000000000000000 
1
1.000000000000000 0.000000000000000 0.000000000000000 0.000000000000000 
0.000000000000000 1.000000000000000 0.000000000000000 0.000000000000000 
0.000000000000000 0.000000000000000 1.000000000000000 0.000000000000000 
1
1.000000000000000 0.000000000000000 0.000000000000000 0.000000000000000 
0.000000000000000 1.000000000000000 0.000000000000000 0.000000000000000 
0.000000000000000 0.000000000000000 1.000000000000000 0.000000000000000 
1
1.000000000000000 0.000000000000000 0.000000000000000 0.000000000000000 
0.000000000000000 1.000000000000000 0.000000000000000 0.000000000000000 
0.000000000000000 0.000000000000000 1.000000000000000 0.000000000000000 
2  2 1 3 1 4 -1 0
1
1.000000000000000 0.000000000000000 0.000000000000000 0.000000000000000 
0.000000000000000 1.000000000000000 0.000000000000000 0.000000000000000 
0.000000000000000 0.000000000000000 1.000000000000000 0.500000000000000 
2  2 1 3 1 4 -1 6 1 0
1
1.000000000000000 0.000000000000000 0.000000000000000 0.000000000000000 
0.000000000000000 1.000000000000000 0.000000000000000 0.000000000000000 
0.000000000000000 0.000000000000000 1.000000000000000 0.000000000000000 
1
1.000000000000000 0.000000000000000 0.000000000000000 0.000000000000000 
0.000000000000000 1.000000000000000 0.000000000000000 0.000000000000000 
0.000000000000000 0.000000000000000 1.000000000000000 0.000000000000000 
2  8 1 9 -1 2 -1 0
1
1.000000000000000 0.000000000000000 0.000000000000000 0.000000000000000 
0.000000000000000 1.000000000000000 0.000000000000000 0.000000000000000 
0.000000000000000 0.000000000000000 1.000000000000000 10.000000000000000 
2  11 -1 8 1 9 -1 2 -1 0
1
1.000000000000000 0.000000000000000 0.000000000000000 0.000000000000000 
0.000000000000000 1.000000000000000 0.000000000000000 0.000000000000000 
0.000000000000000 0.000000000000000 1.000000000000000 0.000000000000000 
1
1.000000000000000 0.000000000000000 0.000000000000000 0.000000000000000 
0.000000000000000 1.000000000000000 0.000000000000000 0.000000000000000 
0.000000000000000 0.000000000000000 1.000000000000000 0.000000000000000 
2  13 1 14 -1 2 -1 0
1
1.000000000000000 0.000000000000000 0.000000000000000 0.000000000000000 
0.000000000000000 1.000000000000000 0.000000000000000 0.000000000000000 
0.000000000000000 0.000000000000000 1.000000000000000 10.000000000000000 
2  16 -1 13 1 14 -1 2 -1 0
1
1.000000000000000 0.000000000000000 0.000000000000000 0.000000000000000 
0.000000000000000 1.000000000000000 0.000000000000000 0.000000000000000 
0.000000000000000 0.000000000000000 1.000000000000000 0.000000000000000 
1
1.000000000000000 0.000000000000000 0.000000000000000 0.000000000000000 
0.000000000000000 1.000000000000000 0.000000000000000 0.000000000000000 
0.000000000000000 0.000000000000000 1.000000000000000 0.000000000000000 
2  18 1 19 -1 2 -1 0
1
1.000000000000000 0.000000000000000 0.000000000000000 0.000000000000000 
0.000000000000000 1.000000000000000 0.000000000000000 0.000000000000000 
0.000000000000000 0.000000000000000 1.000000000000000 0.500000000000000 
2  21 -1 18 1 19 -1 2 -1 0
2  4 1 3 -1 2 -1 0
2  6 -1 4 1 3 -1 2 -1 0
2  4 -1 0
2  2 1 3 1 0
2  4 -1 6 1 0
Curve2ds 20
1 0.05265590826156979 0.00000000000000000 0.00000000000000000 -1.00000000000000000 
1 3.08893674532822349 0.00000000000000000 0.00000000000000000 -1.00000000000000000 
1 0.00000000000000000 0.00000000000000000 1.00000000000000000 0.00000000000000000 
1 0.00000000000000000 -10.00000000000000000 1.00000000000000000 0.00000000000000000 
1 0.00000000000000000 0.00000000000000000 1.00000000000000000 0.00000000000000000 
1 0.00000000000000000 -10.00000000000000000 1.00000000000000000 0.00000000000000000 
1 0.00000000000000000 0.00000000000000000 1.00000000000000000 0.00000000000000000 
1 0.00000000000000000 -0.50000000000000000 1.00000000000000000 0.00000000000000000 
1 0.00000000000000000 0.00000000000000000 1.00000000000000000 0.00000000000000000 
1 0.00000000000000000 -0.50000000000000000 1.00000000000000000 0.00000000000000000 
1 3.19424856185136319 0.00000000000000000 0.00000000000000000 -1.00000000000000000 
1 6.23052939891801660 0.00000000000000000 0.00000000000000000 -1.00000000000000000 
1 0.00000000000000000 0.00000000000000000 1.00000000000000000 0.00000000000000000 
1 0.00000000000000000 -10.00000000000000000 1.00000000000000000 0.00000000000000000 
1 0.00000000000000000 0.00000000000000000 1.00000000000000000 0.00000000000000000 
1 0.00000000000000000 -10.00000000000000000 1.00000000000000000 0.00000000000000000 
1 0.00000000000000000 0.00000000000000000 1.00000000000000000 0.00000000000000000 
1 0.00000000000000000 -0.50000000000000000 1.00000000000000000 0.00000000000000000 
1 0.00000000000000000 0.00000000000000000 1.00000000000000000 0.00000000000000000 
1 0.00000000000000000 -0.50000000000000000 1.00000000000000000 0.00000000000000000 
Curves 16
1 4.74341649025256906 0.25000000000000000 0.00000000000000000 0.00000000000000000 0.00000000000000000 1.00000000000000000 
1 -4.74341649025256906 0.24999999999999992 0.00000000000000000 0.00000000000000000 0.00000000000000000 1.00000000000000000 
2 -0.00000000000000044 0.00000000000000000 0.00000000000000000 0.00000000000000000 0.00000000000000000 1.00000000000000000 1.00000000000000000 0.00000000000000000 -0.00000000000000000 -0.00000000000000000 1.00000000000000000 0.00000000000000000 4.75000000000000000
1 -6.00000000000000000 0.25000000000000000 0.00000000000000000 0.00000000000000000 0.00000000000000000 1.00000000000000000 
1 -6.00000000000000000 0.25000000000000000 0.00000000000000000 1.00000000000000000 0.00000000000000000 0.00000000000000000 
1 -6.00000000000000000 -0.25000000000000000 0.00000000000000000 0.00000000000000000 0.00000000000000000 1.00000000000000000 
1 -6.00000000000000000 0.25000000000000000 0.00000000000000000 0.00000000000000000 -1.00000000000000000 0.00000000000000000 
1 -4.74341649025256906 -0.25000000000000033 0.00000000000000000 0.00000000000000000 0.00000000000000000 1.00000000000000000 
1 -6.00000000000000000 -0.25000000000000000 0.00000000000000000 1.00000000000000000 0.00000000000000000 0.00000000000000000 
1 4.74341649025256906 -0.25000000000000039 0.00000000000000000 0.00000000000000000 0.00000000000000000 1.00000000000000000 
2 -0.00000000000000044 0.00000000000000000 0.00000000000000000 0.00000000000000000 0.00000000000000000 1.00000000000000000 1.00000000000000000 0.00000000000000000 -0.00000000000000000 -0.00000000000000000 1.00000000000000000 0.00000000000000000 4.75000000000000000
1 6.00000000000000000 -0.25000000000000044 0.00000000000000000 0.00000000000000000 0.00000000000000000 1.00000000000000000 
1 6.00000000000000000 -0.25000000000000039 0.00000000000000000 -1.00000000000000000 0.00000000000000000 0.00000000000000000 
1 6.00000000000000000 0.25000000000000000 0.00000000000000000 0.00000000000000000 0.00000000000000000 1.00000000000000000 
1 6.00000000000000000 0.25000000000000000 0.00000000000000000 0.00000000000000000 -1.00000000000000000 0.00000000000000000 
1 4.74341649025256906 0.25000000000000000 0.00000000000000000 1.00000000000000000 0.00000000000000000 0.00000000000000000 
Polygon3D 0
PolygonOnTriangulations 0
Surfaces 15
2 -0.00000000000000044 0.00000000000000000 0.00000000000000000 -0.00000000000000000 -0.00000000000000000 -1.00000000000000000 1.00000000000000000 0.00000000000000000 0.00000000000000000 -0.00000000000000000 1.00000000000000000 -0.00000000000000000 4.75000000000000000
2 -0.00000000000000044 0.00000000000000000 0.00000000000000000 -0.00000000000000000 -0.00000000000000000 -1.00000000000000000 1.00000000000000000 0.00000000000000000 0.00000000000000000 -0.00000000000000000 1.00000000000000000 -0.00000000000000000 4.75000000000000000
2 -0.00000000000000044 0.00000000000000000 0.00000000000000000 -0.00000000000000000 -0.00000000000000000 -1.00000000000000000 1.00000000000000000 0.00000000000000000 0.00000000000000000 -0.00000000000000000 1.00000000000000000 -0.00000000000000000 4.75000000000000000
2 -0.00000000000000044 0.00000000000000000 0.00000000000000000 -0.00000000000000000 -0.00000000000000000 -1.00000000000000000 1.00000000000000000 0.00000000000000000 0.00000000000000000 -0.00000000000000000 1.00000000000000000 -0.00000000000000000 4.75000000000000000
1 -6.00000000000000000 0.25000000000000000 0.00000000000000000 0.00000000000000000 1.00000000000000000 0.00000000000000000 1.00000000000000000 0.00000000000000000 0.00000000000000000 0.00000000000000000 0.00000000000000000 -1.00000000000000000 
1 -6.00000000000000000 0.25000000000000000 0.00000000000000000 1.00000000000000000 0.00000000000000000 -0.00000000000000000 0.00000000000000000 -1.00000000000000000 0.00000000000000000 0.00000000000000000 -0.00000000000000000 -1.00000000000000000 
1 -6.00000000000000000 -0.25000000000000000 0.00000000000000000 0.00000000000000000 1.00000000000000000 0.00000000000000000 1.00000000000000000 0.00000000000000000 0.00000000000000000 0.00000000000000000 0.00000000000000000 -1.00000000000000000 
2 -0.00000000000000044 0.00000000000000000 0.00000000000000000 -0.00000000000000000 -0.00000000000000000 -1.00000000000000000 1.00000000000000000 0.00000000000000000 0.00000000000000000 -0.00000000000000000 1.00000000000000000 -0.00000000000000000 4.75000000000000000
2 -0.00000000000000044 0.00000000000000000 0.00000000000000000 -0.00000000000000000 -0.00000000000000000 -1.00000000000000000 1.00000000000000000 0.00000000000000000 0.00000000000000000 -0.00000000000000000 1.00000000000000000 -0.00000000000000000 4.75000000000000000
2 -0.00000000000000044 0.00000000000000000 0.00000000000000000 -0.00000000000000000 -0.00000000000000000 -1.00000000000000000 1.00000000000000000 0.00000000000000000 0.00000000000000000 -0.00000000000000000 1.00000000000000000 -0.00000000000000000 4.75000000000000000
2 -0.00000000000000044 0.00000000000000000 0.00000000000000000 -0.00000000000000000 -0.00000000000000000 -1.00000000000000000 1.00000000000000000 0.00000000000000000 0.00000000000000000 -0.00000000000000000 1.00000000000000000 -0.00000000000000000 4.75000000000000000
1 6.00000000000000000 -0.25000000000000039 0.00000000000000000 0.00000000000000000 -1.00000000000000000 0.00000000000000000 -1.00000000000000000 0.00000000000000000 0.00000000000000000 -0.00000000000000000 -0.00000000000000000 -1.00000000000000000 
1 6.00000000000000000 0.25000000000000000 0.00000000000000000 1.00000000000000000 0.00000000000000000 -0.00000000000000000 0.00000000000000000 -1.00000000000000000 0.00000000000000000 0.00000000000000000 -0.00000000000000000 -1.00000000000000000 
1 4.74341649025256906 0.25000000000000000 0.00000000000000000 0.00000000000000000 1.00000000000000000 0.00000000000000000 1.00000000000000000 0.00000000000000000 0.00000000000000000 0.00000000000000000 0.00000000000000000 -1.00000000000000000 
1 0.00000000000000009 -0.00000000000000017 0.00000000000000000 0.00000000000000000 0.00000000000000000 1.00000000000000000 1.00000000000000000 0.00000000000000000 -0.00000000000000000 -0.00000000000000000 1.00000000000000000 0.00000000000000000 
Triangulations 0

TShapes 44
Ve
0.000000100000000
4.743416490252569 0.250000000000000 0.000000000000000
0 0

0101101
*
Ed
 0.000000100000000 1 1 0
1  1 0 0.000000000000000 0.500000000000000
2  1 1 0 0.000000000000000 0.500000000000000
0

0101000
+44 5 -44 7 *
Ve
0.000000100000000
-4.743416490252569 0.250000000000000 0.000000000000000
0 0

0101101
*
Ed
 0.000000100000000 1 1 0
1  2 0 0.000000000000000 0.500000000000000
2  2 1 0 0.000000000000000 0.500000000000000
0

0101000
+42 5 -42 7 *
Ed
 0.000000100000000 1 1 0
1  3 0 0.052655908261570 3.088936745328223
2  3 2 10 0.052655908261570 3.088936745328223
2  4 2 12 0.052655908261570 3.088936745328223
2  5 3 15 0.052655908261570 3.088936745328223
2  6 3 17 0.052655908261570 3.088936745328223
2  7 4 20 0.052655908261570 3.088936745328223
2  8 4 22 0.052655908261570 3.088936745328223
2  9 1 23 0.052655908261570 3.088936745328223
2  10 1 24 0.052655908261570 3.088936745328223
0

0101000
+44 0 -42 0 *
Wi

0101100
+43 0 -41 0 -40 5 +40 7 *
Fa
0  0.000000100000000 1 0

0101000
+39 0 *
Ve
0.000000100000000
-6.000000000000000 0.250000000000000 0.000000000000000
0 0

0101101
*
Ed
 0.000000100000000 1 1 0
1  4 0 0.000000000000000 0.500000000000000
0

0101000
+37 5 -37 7 *
Ed
 0.000000100000000 1 1 0
1  5 0 0.000000000000000 1.256583509747431
0

0101000
+37 0 -42 0 *
Wi

0101100
+36 0 -41 0 -35 5 +35 7 *
Fa
0  0.000000100000000 5 0

0101000
+34 0 *
Ve
0.000000100000000
-6.000000000000000 -0.250000000000000 0.000000000000000
0 0

0101101
*
Ed
 0.000000100000000 1 1 0
1  6 0 0.000000000000000 0.500000000000000
0

0101000
+32 5 -32 7 *
Ed
 0.000000100000000 1 1 0
1  7 0 0.000000000000000 0.500000000000000
0

0101000
+37 0 -32 0 *
Wi

0101100
+36 0 -31 0 -30 5 +30 7 *
Fa
0  0.000000100000000 6 0

0101000
+29 0 *
Ve
0.000000100000000
-4.743416490252569 -0.250000000000000 0.000000000000000
0 0

0101101
*
Ed
 0.000000100000000 1 1 0
1  8 0 0.000000000000000 0.500000000000000
2  11 8 0 0.000000000000000 0.500000000000000
0

0101000
+27 5 -27 7 *
Ed
 0.000000100000000 1 1 0
1  9 0 0.000000000000000 1.256583509747431
0

0101000
+32 0 -27 0 *
Wi

0101100
+31 0 -26 0 -25 5 +25 7 *
Fa
0  0.000000100000000 7 0

0101000
+24 0 *
Ve
0.000000100000000
4.743416490252569 -0.250000000000000 0.000000000000000
0 0

0101101
*
Ed
 0.000000100000000 1 1 0
1  10 0 0.000000000000000 0.500000000000000
2  12 8 0 0.000000000000000 0.500000000000000
0

0101000
+22 5 -22 7 *
Ed
 0.000000100000000 1 1 0
1  11 0 3.194248561851363 6.230529398918017
2  13 9 10 3.194248561851363 6.230529398918017
2  14 9 12 3.194248561851363 6.230529398918017
2  15 10 15 3.194248561851363 6.230529398918017
2  16 10 17 3.194248561851363 6.230529398918017
2  17 11 20 3.194248561851363 6.230529398918017
2  18 11 22 3.194248561851363 6.230529398918017
2  19 8 23 3.194248561851363 6.230529398918017
2  20 8 24 3.194248561851363 6.230529398918017
0

0101000
+27 0 -22 0 *
Wi

0101100
+26 0 -21 0 -20 5 +20 7 *
Fa
0  0.000000100000000 8 0

0101000
+19 0 *
Ve
0.000000100000000
6.000000000000000 -0.250000000000000 0.000000000000000
0 0

0101101
*
Ed
 0.000000100000000 1 1 0
1  12 0 0.000000000000000 0.500000000000000
0

0101000
+17 5 -17 7 *
Ed
 0.000000100000000 1 1 0
1  13 0 0.000000000000000 1.256583509747431
0

0101000
+17 0 -22 0 *
Wi

0101100
+16 0 -21 0 -15 5 +15 7 *
Fa
0  0.000000100000000 12 0

0101000
+14 0 *
Ve
0.000000100000000
6.000000000000000 0.250000000000000 0.000000000000000
0 0

0101101
*
Ed
 0.000000100000000 1 1 0
1  14 0 0.000000000000000 0.500000000000000
0

0101000
+12 5 -12 7 *
Ed
 0.000000100000000 1 1 0
1  15 0 0.000000000000000 0.500000000000000
0

0101000
+12 0 -17 0 *
Wi

0101100
+11 0 -16 0 -10 5 +10 7 *
Fa
0  0.000000100000000 13 0

0101000
+9 0 *
Ed
 0.000000100000000 1 1 0
1  16 0 0.000000000000000 1.256583509747431
0

0101000
+44 0 -12 0 *
Wi

0101100
+43 0 -11 0 -7 5 +7 7 *
Fa
0  0.000000100000000 14 0

0101000
+6 0 *
Wi

0101100
+40 0 -35 0 +30 0 +25 0 +20 0 -15 0 -10 0 -7 0 *
Fa
0  0.000000100000000 15 0

0101000
+4 26 *
Sh

0101100
+38 0 -33 0 +28 0 +23 0 +18 0 -13 0 -8 0 -5 0 +3 25 -3 27 
*
So

0100000
-2 0 *

+1 1 