%TF.GenerationSoftware,KiCad,Pcbnew,7.0.9*%
%TF.CreationDate,2023-12-04T18:00:22+00:00*%
%TF.ProjectId,Bezel,42657a65-6c2e-46b6-9963-61645f706362,rev?*%
%TF.SameCoordinates,PX55d4a80PY68e7780*%
%TF.FileFunction,Soldermask,Bot*%
%TF.FilePolarity,Negative*%
%FSLAX46Y46*%
G04 Gerber Fmt 4.6, Leading zero omitted, Abs format (unit mm)*
G04 Created by KiCad (PCBNEW 7.0.9) date 2023-12-04 18:00:22*
%MOMM*%
%LPD*%
G01*
G04 APERTURE LIST*
%TA.AperFunction,Profile*%
%ADD10C,0.100000*%
%TD*%
G04 APERTURE END LIST*
%TA.AperFunction,NonConductor*%
G36*
X418913711Y91236999D02*
G01*
X419105829Y91230961D01*
X419109416Y91230742D01*
X419457743Y91199089D01*
X419719286Y91174366D01*
X419722719Y91173942D01*
X420054824Y91123397D01*
X420328084Y91080116D01*
X420331305Y91079516D01*
X420653925Y91010262D01*
X420929860Y90948582D01*
X420932954Y90947806D01*
X421247653Y90860076D01*
X421522409Y90780252D01*
X421525298Y90779334D01*
X421732638Y90707785D01*
X421832236Y90673416D01*
X422103414Y90575786D01*
X422106118Y90574741D01*
X422404917Y90450974D01*
X422564934Y90381729D01*
X422671985Y90335403D01*
X422963228Y90193596D01*
X423107010Y90120336D01*
X423223305Y90061081D01*
X423504901Y89902260D01*
X423756681Y89753358D01*
X424027784Y89578077D01*
X424248242Y89428254D01*
X424270073Y89413417D01*
X424529823Y89222290D01*
X424761545Y89042548D01*
X425000541Y88843370D01*
X425009110Y88836228D01*
X425229232Y88642164D01*
X425463810Y88421347D01*
X425671346Y88213811D01*
X425892163Y87979233D01*
X426086227Y87759111D01*
X426119502Y87719184D01*
X426292539Y87511555D01*
X426472284Y87279831D01*
X426663416Y87020074D01*
X426828086Y86777769D01*
X427003339Y86506711D01*
X427003351Y86506692D01*
X427152267Y86254889D01*
X427311075Y85973316D01*
X427443595Y85713229D01*
X427585402Y85421986D01*
X427700971Y85154923D01*
X427824736Y84856126D01*
X427825790Y84853401D01*
X427923415Y84582237D01*
X428029329Y84275308D01*
X428030259Y84272381D01*
X428110080Y83997638D01*
X428120657Y83959695D01*
X428197800Y83682969D01*
X428198584Y83679845D01*
X428260274Y83403863D01*
X428329506Y83081345D01*
X428330124Y83078031D01*
X428373418Y82804682D01*
X428423935Y82472761D01*
X428424366Y82469266D01*
X428449095Y82207668D01*
X428480737Y81859460D01*
X428480961Y81855796D01*
X428487004Y81663506D01*
X428499500Y81250000D01*
X428499500Y10000000D01*
X428487004Y9586495D01*
X428480961Y9394206D01*
X428480737Y9390542D01*
X428449095Y9042333D01*
X428424366Y8780736D01*
X428423935Y8777241D01*
X428373418Y8445319D01*
X428330124Y8171971D01*
X428329506Y8168657D01*
X428260274Y7846138D01*
X428198584Y7570157D01*
X428197800Y7567033D01*
X428110083Y7252376D01*
X428030259Y6977621D01*
X428029329Y6974694D01*
X427923415Y6667764D01*
X427825790Y6396601D01*
X427824736Y6393876D01*
X427700971Y6095078D01*
X427585402Y5828015D01*
X427443595Y5536772D01*
X427311075Y5276685D01*
X427152267Y4995112D01*
X427003351Y4743309D01*
X426828087Y4472232D01*
X426663416Y4229927D01*
X426472284Y3970170D01*
X426292534Y3738439D01*
X426086227Y3490890D01*
X425892163Y3270768D01*
X425671346Y3036190D01*
X425463810Y2828654D01*
X425229232Y2607837D01*
X425009110Y2413773D01*
X424761561Y2207466D01*
X424600491Y2082527D01*
X424529830Y2027716D01*
X424270073Y1836584D01*
X424027768Y1671913D01*
X423756691Y1496649D01*
X423504888Y1347733D01*
X423223315Y1188925D01*
X422963228Y1056405D01*
X422671985Y914598D01*
X422404922Y799029D01*
X422106124Y675264D01*
X422103399Y674210D01*
X421832236Y576585D01*
X421525306Y470671D01*
X421522379Y469741D01*
X421247624Y389917D01*
X420932967Y302200D01*
X420929843Y301416D01*
X420653862Y239726D01*
X420331343Y170494D01*
X420328029Y169876D01*
X420054681Y126582D01*
X419722759Y76065D01*
X419719264Y75634D01*
X419457667Y50905D01*
X419109458Y19263D01*
X419105794Y19039D01*
X418913505Y12996D01*
X418500000Y500D01*
X10000000Y500D01*
X9586494Y12996D01*
X9394204Y19039D01*
X9390540Y19263D01*
X9042332Y50905D01*
X8780734Y75634D01*
X8777239Y76065D01*
X8445318Y126582D01*
X8171969Y169876D01*
X8168655Y170494D01*
X7846137Y239726D01*
X7570155Y301416D01*
X7567031Y302200D01*
X7252387Y389913D01*
X7195834Y406343D01*
X6977619Y469741D01*
X6974692Y470671D01*
X6667763Y576585D01*
X6396599Y674210D01*
X6393874Y675264D01*
X6095077Y799029D01*
X5828014Y914598D01*
X5536771Y1056405D01*
X5276684Y1188925D01*
X4995111Y1347733D01*
X4743308Y1496649D01*
X4586410Y1598091D01*
X4472231Y1671914D01*
X4331588Y1767495D01*
X4229926Y1836584D01*
X3970180Y2027708D01*
X3738445Y2207461D01*
X3490889Y2413773D01*
X3270767Y2607837D01*
X3036189Y2828654D01*
X2828653Y3036190D01*
X2607836Y3270768D01*
X2413772Y3490890D01*
X2327315Y3594630D01*
X2207452Y3738455D01*
X2027702Y3970188D01*
X1836583Y4229927D01*
X1821746Y4251758D01*
X1671923Y4472216D01*
X1496643Y4743316D01*
X1347732Y4995112D01*
X1188924Y5276685D01*
X1056404Y5536772D01*
X914597Y5828015D01*
X868271Y5935066D01*
X799026Y6095083D01*
X675259Y6393882D01*
X674208Y6396601D01*
X576584Y6667764D01*
X470669Y6974694D01*
X469748Y6977591D01*
X389916Y7252376D01*
X302194Y7567046D01*
X301414Y7570157D01*
X239725Y7846138D01*
X228136Y7900126D01*
X170484Y8168695D01*
X169884Y8171916D01*
X126603Y8445176D01*
X76058Y8777281D01*
X75634Y8780714D01*
X50911Y9042257D01*
X19258Y9390584D01*
X19039Y9394171D01*
X12992Y9586586D01*
X500Y10000000D01*
X500Y10024111D01*
X9999416Y10024111D01*
X9999459Y9999999D01*
X9999500Y9999901D01*
X9999616Y9999618D01*
X9999618Y9999616D01*
X9999808Y9999538D01*
X10000000Y9999459D01*
X10000002Y9999461D01*
X10024616Y9999476D01*
X10024616Y9999472D01*
X10024760Y9999500D01*
X418475240Y9999500D01*
X418475383Y9999472D01*
X418475384Y9999476D01*
X418499997Y9999461D01*
X418500000Y9999459D01*
X418500383Y9999617D01*
X418500500Y9999901D01*
X418500541Y10000000D01*
X418500540Y10000003D01*
X418500583Y10024111D01*
X418500500Y10024533D01*
X418500500Y81225241D01*
X418500528Y81225384D01*
X418500524Y81225384D01*
X418500539Y81249998D01*
X418500541Y81250000D01*
X418500462Y81250192D01*
X418500384Y81250382D01*
X418500382Y81250384D01*
X418500099Y81250500D01*
X418500000Y81250541D01*
X418475446Y81250541D01*
X418475240Y81250500D01*
X10024760Y81250500D01*
X10024554Y81250541D01*
X10000000Y81250541D01*
X9999901Y81250500D01*
X9999617Y81250384D01*
X9999615Y81250382D01*
X9999459Y81250001D01*
X9999476Y81225384D01*
X9999471Y81225384D01*
X9999500Y81225241D01*
X9999500Y10024533D01*
X9999416Y10024111D01*
X500Y10024111D01*
X500Y81250000D01*
X12995Y81663506D01*
X19039Y81855834D01*
X19258Y81859413D01*
X50929Y82207944D01*
X75635Y82469295D01*
X76056Y82472711D01*
X126583Y82804696D01*
X169886Y83078099D01*
X170482Y83081292D01*
X239735Y83403910D01*
X301422Y83679879D01*
X302187Y83682927D01*
X389931Y83997681D01*
X469755Y84272433D01*
X470658Y84275276D01*
X576591Y84582257D01*
X674224Y84853444D01*
X675247Y84856090D01*
X799046Y85154967D01*
X914597Y85421986D01*
X1056404Y85713229D01*
X1064259Y85728647D01*
X1188925Y85973316D01*
X1347743Y86254909D01*
X1496634Y86506670D01*
X1671925Y86777787D01*
X1836569Y87020055D01*
X2027725Y87279844D01*
X2207446Y87511539D01*
X2413784Y87759125D01*
X2607812Y87979208D01*
X2828669Y88213828D01*
X3036172Y88421331D01*
X3270774Y88642171D01*
X3490875Y88836216D01*
X3738461Y89042554D01*
X3970156Y89222275D01*
X4229945Y89413431D01*
X4472213Y89578075D01*
X4743330Y89753366D01*
X4995091Y89902257D01*
X5276686Y90061077D01*
X5536771Y90193596D01*
X5828014Y90335403D01*
X6095033Y90450954D01*
X6393910Y90574753D01*
X6396556Y90575776D01*
X6667732Y90673406D01*
X6974724Y90779342D01*
X6977567Y90780245D01*
X7252319Y90860069D01*
X7567073Y90947813D01*
X7570121Y90948578D01*
X7846090Y91010265D01*
X8168708Y91079518D01*
X8171901Y91080114D01*
X8445304Y91123417D01*
X8777289Y91173944D01*
X8780705Y91174365D01*
X9042056Y91199071D01*
X9390587Y91230742D01*
X9394166Y91230961D01*
X9586085Y91236993D01*
X10000000Y91249500D01*
X10000500Y91249500D01*
X418499500Y91249500D01*
X418500000Y91249500D01*
X418913711Y91236999D01*
G37*
%TD.AperFunction*%
D10*
X428500000Y81250000D02*
G75*
G03*
X418500000Y91250000I-10000000J0D01*
G01*
X418500000Y0D02*
G75*
G03*
X428500000Y10000000I0J10000000D01*
G01*
X428500000Y81250000D02*
X428500000Y10000000D01*
X10000000Y91250000D02*
X418500000Y91250000D01*
X10000000Y0D02*
X418500000Y0D01*
X0Y10000000D02*
G75*
G03*
X10000000Y0I10000000J0D01*
G01*
X10000000Y91250000D02*
G75*
G03*
X0Y81250000I0J-10000000D01*
G01*
X0Y10000000D02*
X0Y81250000D01*
X10000000Y81250000D02*
X418500000Y81250000D01*
X418500000Y10000000D01*
X10000000Y10000000D01*
X10000000Y81250000D01*
M02*
